<svg width="335" height="298" viewBox="0 0 335 298" fill="none" xmlns="http://www.w3.org/2000/svg">
<path d="M315.171 82.0824C312.035 76.9143 308.555 71.9265 304.751 67.1468C302.086 63.7934 299.27 60.552 296.303 57.4225H296.296C290.927 51.7572 285.088 46.4782 278.831 41.6324C277.551 40.639 276.253 39.6659 274.937 38.7132C263.065 30.0858 249.9 23.0588 235.843 17.8468L235.968 36.6097L237.313 250.497H120.73L114.173 37.0133L114.662 18.55C57.5048 40.5082 17.3721 92.1359 17.3721 152.329C17.3615 164.753 19.0967 177.127 22.5354 189.148C23.9878 194.229 25.7462 199.233 27.8026 204.138C28.545 205.918 29.3282 207.682 30.1522 209.43C30.5494 210.281 30.954 211.126 31.3734 211.966C31.9116 213.065 32.4721 214.16 33.0475 215.242C33.4929 216.093 33.9507 216.938 34.4209 217.778C35.0259 218.88 35.6508 219.973 36.2954 221.057C36.7928 221.908 37.305 222.752 37.8247 223.593C46.2086 237.139 56.9146 249.37 69.5355 259.821C73.1324 262.802 76.8752 265.627 80.764 268.298C108.28 287.184 141.767 297.396 176.186 297.396C210.604 297.396 244.092 287.184 271.608 268.298C273.724 266.847 275.796 265.347 277.825 263.799C279.173 262.775 280.498 261.731 281.801 260.669C282.146 260.388 282.491 260.106 282.833 259.821C294.469 250.186 304.482 239.034 312.55 226.726C315.513 222.213 318.2 217.554 320.598 212.77C321.232 211.509 321.847 210.236 322.442 208.952C325.182 203.066 327.486 197.018 329.339 190.85C329.625 189.897 329.901 188.941 330.167 187.981V187.978C330.211 187.812 330.26 187.642 330.304 187.476C330.579 186.466 330.842 185.449 331.095 184.431V184.428C331.911 181.149 332.601 177.831 333.162 174.473C333.233 174.043 333.303 173.612 333.37 173.181C333.396 173.025 333.422 172.869 333.441 172.713V172.71C333.842 170.116 334.167 167.503 334.417 164.871C334.803 160.738 334.997 156.557 335 152.329C335.042 127.754 328.217 103.575 315.171 82.0824Z" fill="#F2F2F2"/>
<path d="M299.574 239.898C308.974 228.296 312.589 211.954 305.277 199.159C298.42 213.551 286.21 225.263 270.809 232.224C264.858 234.889 257.936 237.287 255.182 242.792C253.468 246.218 253.795 250.263 255.172 253.813C256.55 257.364 258.893 260.522 261.212 263.637L261.334 264.571C275.931 259.043 290.174 251.499 299.574 239.898Z" fill="#E6E6E6"/>
<path d="M304.965 199.262C304.544 211.202 300.015 222.718 292.021 232.174C290.339 234.237 288.312 236.046 286.014 237.533C283.725 238.915 281.071 239.712 278.33 239.841C275.777 240.008 273.145 239.909 270.68 240.64C269.425 241.031 268.275 241.661 267.304 242.487C266.334 243.313 265.566 244.317 265.05 245.433C263.686 248.183 263.485 251.218 263.401 254.191C263.309 257.493 263.27 260.924 261.565 263.925C261.358 264.289 261.988 264.56 262.194 264.197C265.16 258.975 263.234 252.869 265.002 247.38C265.827 244.818 267.502 242.468 270.301 241.442C272.749 240.544 275.464 240.644 278.051 240.495C280.727 240.405 283.338 239.718 285.656 238.494C288.03 237.119 290.13 235.385 291.866 233.366C295.855 228.878 299.046 223.845 301.323 218.452C303.959 212.31 305.426 205.801 305.659 199.207C305.674 198.798 304.98 198.856 304.965 199.262Z" fill="white"/>
<path d="M294.791 229.268C296.71 230.277 298.959 230.631 301.137 230.266C303.315 229.901 305.28 228.84 306.681 227.274C306.964 226.956 306.436 226.54 306.154 226.858C304.852 228.319 303.021 229.307 300.992 229.643C298.963 229.98 296.87 229.643 295.089 228.693C294.702 228.486 294.406 229.063 294.791 229.268Z" fill="white"/>
<path d="M279.637 239.912C278.422 235.929 278.896 231.673 280.963 227.995C281.169 227.63 280.539 227.359 280.334 227.723C278.19 231.554 277.707 235.983 278.981 240.126C279.103 240.521 279.758 240.305 279.637 239.912H279.637Z" fill="white"/>
<path d="M303.037 212.339C302.205 212.09 301.454 211.656 300.852 211.076C300.249 210.496 299.814 209.788 299.585 209.017C299.469 208.621 298.814 208.837 298.929 209.231C299.187 210.082 299.669 210.863 300.333 211.505C300.997 212.147 301.823 212.631 302.739 212.914C302.823 212.947 302.917 212.95 303.003 212.922C303.09 212.894 303.161 212.837 303.202 212.763C303.241 212.686 303.246 212.599 303.215 212.52C303.184 212.44 303.12 212.376 303.037 212.339Z" fill="white"/>
<path d="M252.952 188.977C253.016 189.226 253.081 189.475 253.142 189.728C253.995 193.082 254.548 196.493 254.797 199.929C254.82 200.194 254.84 200.464 254.856 200.729C255.357 209.012 254.17 217.308 251.356 225.195C250.233 228.333 248.85 231.388 247.219 234.334C244.967 238.402 242.171 242.65 241.541 247.031C241.469 247.487 241.429 247.947 241.42 248.408L260.078 264.635C260.14 264.652 260.199 264.674 260.262 264.691L260.975 265.37C261.07 265.224 261.166 265.07 261.262 264.923C261.318 264.838 261.37 264.75 261.425 264.665C261.461 264.607 261.497 264.549 261.533 264.499C261.545 264.48 261.557 264.461 261.565 264.445C261.601 264.395 261.629 264.345 261.661 264.299C262.199 263.44 262.731 262.576 263.258 261.707C263.262 261.704 263.262 261.704 263.262 261.696C267.258 255.067 270.683 248.075 272.837 240.83C272.902 240.612 272.971 240.391 273.027 240.165C273.978 236.895 274.635 233.559 274.992 230.191C275.18 228.346 275.266 226.493 275.25 224.64C275.197 219.853 274.32 215.103 272.652 210.564C269.324 201.517 262.865 193.543 253.658 189.295C253.423 189.186 253.191 189.081 252.952 188.977Z" fill="#E6E6E6"/>
<path d="M252.768 189.229C260.302 198.995 264.276 210.681 264.125 222.627C264.143 225.199 263.716 227.758 262.862 230.209C261.945 232.572 260.352 234.667 258.248 236.278C256.32 237.815 254.152 239.184 252.667 241.123C251.922 242.126 251.419 243.261 251.188 244.454C250.958 245.647 251.006 246.871 251.33 248.046C252.054 250.993 253.894 253.526 255.787 255.946C257.889 258.633 260.119 261.394 260.736 264.728C260.811 265.132 261.493 265.002 261.418 264.599C260.345 258.798 254.782 254.982 252.575 249.627C251.545 247.128 251.334 244.331 252.893 241.971C254.256 239.908 256.489 238.495 258.456 236.954C260.534 235.41 262.166 233.426 263.21 231.173C264.198 228.77 264.732 226.231 264.788 223.664C265.014 217.887 264.245 212.113 262.509 206.555C260.565 200.201 257.446 194.197 253.286 188.804C253.028 188.47 252.512 188.898 252.768 189.229Z" fill="white"/>
<path d="M264.422 218.783C266.619 218.534 268.649 217.579 270.147 216.09C271.645 214.6 272.515 212.673 272.602 210.652C272.617 210.243 271.922 210.201 271.906 210.611C271.83 212.493 271.019 214.288 269.621 215.673C268.223 217.057 266.329 217.939 264.281 218.16C263.836 218.208 263.979 218.831 264.422 218.783H264.422Z" fill="white"/>
<path d="M259.338 235.616C255.743 233.103 253.316 229.445 252.542 225.371C252.466 224.967 251.784 225.097 251.86 225.5C252.674 229.738 255.208 233.54 258.956 236.147C259.313 236.396 259.694 235.863 259.338 235.616V235.616Z" fill="white"/>
<path d="M259.847 200.731C259.019 200.989 258.134 201.056 257.27 200.924C256.407 200.792 255.593 200.467 254.901 199.977C254.548 199.725 254.168 200.258 254.519 200.508C255.286 201.046 256.185 201.405 257.139 201.552C258.092 201.699 259.071 201.631 259.989 201.354C260.078 201.334 260.155 201.285 260.205 201.215C260.255 201.145 260.275 201.06 260.259 200.978C260.24 200.896 260.186 200.824 260.109 200.777C260.032 200.731 259.938 200.715 259.847 200.731Z" fill="white"/>
<path d="M7.41403 174.919C-0.922724 162.658 -3.07199 146.102 5.35427 133.892C10.9088 148.745 22.036 161.325 36.7671 169.406C42.4607 172.504 49.1464 175.408 51.4017 181.1C52.805 184.641 52.1199 188.649 50.4309 192.085C48.7418 195.521 46.1253 198.496 43.5374 201.428L43.3326 202.35C29.2762 195.756 15.7508 187.18 7.41403 174.919Z" fill="#E6E6E6"/>
<path d="M5.656 134.018C5.01344 145.95 8.50329 157.764 15.6299 167.782C17.1221 169.963 18.9815 171.916 21.1396 173.569C23.2987 175.116 25.8722 176.108 28.5927 176.44C31.1225 176.796 33.7553 176.892 36.1462 177.804C37.3625 178.287 38.4532 179 39.3468 179.895C40.2405 180.79 40.9168 181.848 41.3315 182.999C42.4466 185.842 42.3768 188.881 42.1955 191.851C41.9942 195.149 41.7279 198.571 43.1602 201.689C43.3337 202.067 42.6818 202.291 42.5086 201.913C40.0167 196.489 42.4797 190.545 41.2062 184.943C40.612 182.329 39.1517 179.862 36.4527 178.631C34.0926 177.555 31.3777 177.453 28.8129 177.113C26.1538 176.824 23.6124 175.946 21.4108 174.553C19.1676 173.007 17.229 171.122 15.6779 168.981C12.1017 164.212 9.36865 158.959 7.57889 153.415C5.49783 147.097 4.61526 140.5 4.96934 133.911C4.99143 133.503 5.67797 133.612 5.65601 134.018L5.656 134.018Z" fill="white"/>
<path d="M13.1273 164.679C11.125 165.543 8.85165 165.729 6.71325 165.203C4.57485 164.677 2.71065 163.474 1.45357 161.809C1.20048 161.471 1.76318 161.096 2.01661 161.434C3.18406 162.987 4.92069 164.107 6.91307 164.593C8.90544 165.079 11.0223 164.898 12.8816 164.084C13.2859 163.907 13.5293 164.503 13.1273 164.679Z" fill="white"/>
<path d="M27.284 176.413C28.8491 172.533 28.7557 168.257 27.0224 164.437C26.8503 164.059 27.5021 163.835 27.674 164.213C29.4696 168.191 29.5569 172.641 27.9185 176.675C27.7621 177.06 27.1284 176.796 27.284 176.413Z" fill="white"/>
<path d="M6.41504 147.195C7.26604 147.008 8.05292 146.631 8.705 146.097C9.35708 145.564 9.85395 144.891 10.151 144.139C10.302 143.753 10.9356 144.018 10.7855 144.401C10.4531 145.231 9.90337 145.973 9.18435 146.564C8.46533 147.155 7.59889 147.576 6.66075 147.79C6.57418 147.817 6.47961 147.813 6.39627 147.778C6.31293 147.744 6.24707 147.682 6.21208 147.604C6.17998 147.525 6.18329 147.438 6.22129 147.361C6.2593 147.285 6.32892 147.225 6.41504 147.195Z" fill="white"/>
<path d="M58.413 127.627C58.3262 127.871 58.2393 128.114 58.156 128.362C57.0075 131.641 56.1526 135.001 55.5997 138.406C55.5523 138.669 55.5087 138.936 55.4697 139.199C54.2333 147.418 54.6781 155.774 56.7814 163.844C57.6215 167.055 58.7279 170.203 60.0909 173.26C61.9735 177.482 64.3824 181.923 64.6211 186.337C64.6517 186.797 64.651 187.258 64.6191 187.718L44.5792 202.506C44.5152 202.519 44.4546 202.536 44.3904 202.549L43.6198 203.172C43.5375 203.019 43.4557 202.859 43.3733 202.706C43.3251 202.617 43.2814 202.525 43.2333 202.436C43.2026 202.376 43.172 202.316 43.1406 202.263C43.1303 202.243 43.1202 202.223 43.1136 202.207C43.0821 202.154 43.059 202.102 43.0312 202.054C42.5712 201.158 42.1173 200.257 41.6695 199.352C41.6658 199.348 41.6658 199.348 41.6666 199.341C38.2739 192.437 35.4823 185.214 33.9797 177.833C33.9346 177.611 33.8855 177.385 33.8496 177.156C33.1925 173.826 32.8345 170.452 32.7791 167.069C32.7553 165.216 32.8342 163.363 33.0155 161.518C33.494 156.75 34.7905 152.081 36.8575 147.681C40.9794 138.911 48.1261 131.443 57.6801 127.892C57.9246 127.801 58.1648 127.714 58.413 127.627Z" fill="#E6E6E6"/>
<path d="M58.5734 127.893C50.1954 137.067 45.1949 148.419 44.2822 160.337C44.0359 162.899 44.2333 165.481 44.8671 167.988C45.571 170.411 46.9723 172.618 48.9257 174.379C50.7108 176.054 52.7493 177.579 54.0574 179.622C54.7101 180.677 55.1113 181.846 55.2347 183.052C55.3581 184.258 55.2009 185.475 54.7735 186.622C53.79 189.505 51.7311 191.893 49.6287 194.165C47.2944 196.687 44.8261 199.273 43.9145 202.551C43.8041 202.948 43.136 202.768 43.2463 202.371C44.8323 196.67 50.7162 193.279 53.3922 188.105C54.6408 185.691 55.1005 182.918 53.7569 180.451C52.5819 178.294 50.4813 176.72 48.6578 175.037C46.7247 173.345 45.2747 171.246 44.4345 168.923C43.663 166.454 43.3571 163.884 43.5298 161.321C43.8178 155.547 45.0981 149.849 47.3237 144.438C49.8262 138.249 53.4693 132.497 58.0954 127.43C58.3818 127.117 58.858 127.582 58.5734 127.893V127.893Z" fill="white"/>
<path d="M44.3288 156.484C42.1606 156.072 40.2231 154.97 38.8622 153.375C37.5013 151.779 36.8057 149.793 36.8996 147.772C36.9043 147.69 36.9438 147.612 37.0098 147.556C37.0758 147.5 37.1631 147.469 37.2535 147.47C37.3438 147.472 37.4299 147.505 37.4939 147.563C37.5578 147.621 37.5945 147.7 37.5962 147.783C37.5049 149.664 38.153 151.514 39.4236 152.998C40.6942 154.481 42.5035 155.501 44.525 155.873C44.9642 155.955 44.7655 156.564 44.3288 156.484Z" fill="white"/>
<path d="M47.898 173.638C51.7051 171.401 54.4491 167.935 55.5829 163.931C55.6949 163.535 56.363 163.714 56.2512 164.111C55.0627 168.275 52.1991 171.876 48.2318 174.196C47.8535 174.417 47.5218 173.858 47.898 173.638V173.638Z" fill="white"/>
<path d="M50.494 138.831C51.2966 139.15 52.1734 139.282 53.0455 139.215C53.9177 139.147 54.7579 138.884 55.4907 138.447C55.8658 138.222 56.1972 138.781 55.8246 139.005C55.0124 139.484 54.0841 139.774 53.1207 139.851C52.1573 139.927 51.1881 139.786 50.2978 139.442C50.2109 139.415 50.1382 139.36 50.0943 139.287C50.0505 139.214 50.0389 139.128 50.0618 139.047C50.0882 138.966 50.1484 138.898 50.2293 138.858C50.3103 138.818 50.4054 138.808 50.494 138.831Z" fill="white"/>
<path d="M162.171 49.7601C174.357 49.7601 184.235 40.7367 184.235 29.6057C184.235 18.4747 174.357 9.45129 162.171 9.45129C149.985 9.45129 140.107 18.4747 140.107 29.6057C140.107 40.7367 149.985 49.7601 162.171 49.7601Z" fill="#FF6584"/>
<path d="M229.727 28.5541C227.739 26.6356 225.64 24.8156 223.439 23.1019C219.14 19.7723 214.382 16.9411 209.077 15.1577C207.08 14.484 205.017 13.9878 202.916 13.6759C202.663 13.6387 202.415 13.6014 202.162 13.5708C202.144 13.5691 202.125 13.5691 202.107 13.5708C202.068 13.5608 202.028 13.554 201.988 13.5505C201.472 13.4895 200.956 13.442 200.436 13.4081C197.638 13.2381 194.827 13.4693 192.107 14.093C190.528 14.4568 188.988 14.9469 187.504 15.5577C186.017 16.2227 184.575 16.9688 183.187 17.7922C182.441 18.2059 181.673 18.585 180.886 18.928C178.586 19.9232 176.152 20.6347 173.647 21.0438C171.956 21.321 170.243 21.4752 168.525 21.5049C167.033 21.5321 165.626 21.5795 164.212 22.0712C162.702 22.5892 161.347 23.4226 160.253 24.5047C159.159 25.5868 158.358 26.8876 157.913 28.3032C157.877 28.4289 157.887 28.5615 157.941 28.6817C157.994 28.8019 158.088 28.9033 158.209 28.9711C158.592 29.222 158.963 29.5068 159.368 29.7306C159.725 29.8795 160.106 29.9745 160.496 30.012C161.134 30.1341 161.774 30.2528 162.415 30.3681C164.772 30.7953 167.139 31.1739 169.516 31.5039C174.297 32.1651 179.105 32.6308 183.94 32.9009C183.97 32.9048 184 32.9071 184.03 32.9077C189.492 33.2088 194.968 33.2575 200.436 33.0535C201.264 33.0229 202.088 32.9856 202.916 32.9416C206.364 32.7652 209.804 32.4872 213.235 32.1075C216.408 31.7548 219.57 31.3174 222.719 30.7953C224.968 30.4223 227.209 30.0064 229.441 29.5475C229.549 29.5182 229.648 29.4639 229.726 29.3898C229.805 29.3156 229.862 29.2242 229.89 29.1243C229.919 29.0245 229.919 28.9195 229.89 28.8196C229.862 28.7197 229.805 28.6283 229.727 28.5541Z" fill="#E6E6E6"/>
<path d="M183.866 55.428C180.672 52.3067 177.152 49.4769 173.358 46.9786C172.099 46.1717 170.804 45.4122 169.471 44.7171C167.838 43.8556 166.141 43.0978 164.394 42.4488C164.004 42.303 163.61 42.164 163.217 42.0317C160.982 41.2755 158.663 40.7434 156.302 40.4449C156.283 40.4415 156.264 40.4449 156.246 40.4415C156.209 40.4348 156.168 40.428 156.131 40.4212C154.986 40.2856 153.833 40.221 152.679 40.2279C151.851 40.2279 151.02 40.2686 150.195 40.3432C148.864 40.463 147.544 40.6715 146.246 40.9671C145.604 41.1129 144.965 41.2824 144.338 41.4757C143.423 41.7507 142.525 42.0699 141.647 42.4318C141.632 42.4386 141.621 42.442 141.606 42.4488C140.132 43.1073 138.704 43.8479 137.33 44.6662C137.3 44.6832 137.267 44.7001 137.237 44.7171C135.676 45.5701 134.025 46.2767 132.308 46.8261C130.834 47.2968 129.323 47.6618 127.787 47.9178C126.095 48.1957 124.382 48.3488 122.664 48.3756C121.172 48.4027 119.765 48.4502 118.355 48.9452C116.845 49.4631 115.489 50.2964 114.394 51.3785C113.3 52.4605 112.498 53.7614 112.052 55.1771C112.018 55.3029 112.028 55.4353 112.081 55.5554C112.135 55.6754 112.228 55.7769 112.349 55.8451C112.731 56.096 113.106 56.3774 113.507 56.6012C113.864 56.7512 114.245 56.8463 114.635 56.8826C115.274 57.0047 115.912 57.1267 116.555 57.242C118.912 57.6692 121.28 58.0467 123.659 58.3745C126.922 58.8254 130.198 59.186 133.488 59.4561C135.047 59.5883 136.607 59.6968 138.169 59.7816C142.174 60.002 146.183 60.0879 150.196 60.0393C151.023 60.0291 151.851 60.0122 152.679 59.9884C157.593 59.8562 162.493 59.5194 167.378 58.978C172.823 58.3763 178.231 57.5219 183.58 56.4181C183.689 56.3891 183.787 56.3351 183.865 56.2613C183.944 56.1875 184.001 56.0964 184.029 55.9968C184.058 55.8972 184.058 55.7925 184.03 55.6928C184.001 55.5932 183.945 55.502 183.866 55.428Z" fill="#E6E6E6"/>
<path d="M128.869 1.33798L148.307 246.702L109.431 249.854V4.45971C114.064 1.15439 120.713 0.637264 128.869 1.33798Z" fill="#CCCCCC"/>
<path d="M224.819 1.33798L205.381 246.702L244.257 249.854V4.45971C239.625 1.15439 232.975 0.637264 224.819 1.33798Z" fill="#CCCCCC"/>
<path d="M245.172 4.56691C243.965 1.86518 241.4 0 238.435 0H114.839C110.715 0 107.364 3.6143 107.364 8.06114V251.933C107.328 254.189 108.251 256.37 109.94 258.017C110.823 258.865 111.942 259.477 113.176 259.79C113.718 259.927 114.277 259.996 114.839 259.994H238.435C238.996 259.996 239.556 259.927 240.098 259.79C243.423 258.974 245.91 255.764 245.91 251.933V8.06114C245.914 6.86373 245.663 5.67707 245.172 4.56691ZM243.431 251.933C243.431 254.903 241.189 257.32 238.435 257.32H114.839C112.557 257.32 110.623 255.659 110.032 253.398C109.906 252.918 109.843 252.426 109.843 251.933V8.06114C109.843 5.09125 112.085 2.67772 114.839 2.67772H238.435C238.941 2.67736 239.444 2.76005 239.919 2.92188C241.95 3.60232 243.431 5.64762 243.431 8.06114V251.933Z" fill="#CCCCCC"/>
<path d="M244.671 74.1283H108.604V76.395H244.671V74.1283Z" fill="#CCCCCC"/>
<path d="M244.671 27.3381H108.604V29.605H244.671V27.3381Z" fill="#CCCCCC"/>
<path d="M244.671 111.906H108.604V114.173H244.671V111.906Z" fill="#CCCCCC"/>
<path d="M152.759 1.01697H150.277V144.017H152.759V1.01697Z" fill="#CCCCCC"/>
<path d="M202.997 1.01697H200.516V144.017H202.997V1.01697Z" fill="#CCCCCC"/>
<path d="M260.179 245.828H97.2301C94.2699 245.831 91.4319 246.907 89.3388 248.819C87.2456 250.731 86.0681 253.323 86.0646 256.027C86.0632 257.327 86.3367 258.616 86.8701 259.821C87.6991 261.712 89.1288 263.333 90.9752 264.475C92.8216 265.617 95.0001 266.228 97.2301 266.23H260.179C262.128 266.229 264.043 265.762 265.734 264.876C267.424 263.99 268.831 262.715 269.815 261.178C270.095 260.743 270.338 260.29 270.543 259.821C271.076 258.616 271.35 257.327 271.348 256.027C271.344 253.323 270.165 250.731 268.072 248.819C265.978 246.907 263.14 245.831 260.179 245.828Z" fill="#CCCCCC"/>
<path d="M244.671 138.728H109.431V146.284H244.671V138.728Z" fill="#CCCCCC"/>
<path d="M175.81 136.462H178.292C179.498 136.462 180.655 136.899 181.508 137.679C182.362 138.458 182.841 139.515 182.841 140.617H171.261C171.261 140.071 171.378 139.531 171.607 139.027C171.836 138.523 172.171 138.065 172.593 137.679C173.016 137.293 173.517 136.987 174.069 136.778C174.621 136.569 175.213 136.462 175.81 136.462Z" fill="#CCCCCC"/>
<path d="M179.437 160.037C193.592 160.037 205.066 149.555 205.066 136.626C205.066 123.696 193.592 113.214 179.437 113.214C165.282 113.214 153.807 123.696 153.807 136.626C153.807 149.555 165.282 160.037 179.437 160.037Z" fill="#FFB8B8"/>
<path d="M150.846 114.104C151.04 111.415 152.986 108.664 159.17 107.227C159.17 107.227 169.783 94.8303 184.204 101.331C184.204 101.331 191.196 100.232 196.38 106.858C196.38 106.858 201.52 104.089 203.689 108.998C203.689 108.998 209.717 119.009 207.498 129.221C205.279 139.433 204.143 140.707 204.143 140.707C204.143 140.707 206.971 119.584 190.678 121.049C174.384 122.514 161.265 117.28 157.576 128.739C154.512 138.255 154.898 143.197 154.898 143.197C154.898 143.197 144.651 133.704 148.135 126.23C149.917 122.406 150.547 118.25 150.846 114.104Z" fill="#2F2E41"/>
<path d="M109.739 264.568H251.505C250.557 254.69 249.938 216.932 249.938 214.447C249.938 203.486 240.119 191.524 240.119 191.524L236.605 189.75L207.254 181.385L199.659 172.373C198.863 171.426 197.838 170.661 196.665 170.138C195.491 169.614 194.2 169.347 192.894 169.356L168.9 169.52C166.789 169.535 164.76 170.27 163.21 171.58L148.352 184.17L126.561 193.676L126.523 193.642L126.296 193.796L123.062 195.924L120.982 197.297C120.982 197.297 115.524 203.278 111.163 221.215C110.506 223.913 110.046 258.839 109.739 264.568Z" fill="#007DCB"/>
<path d="M284.317 259.821C283.976 260.106 283.631 260.387 283.286 260.669C281.979 261.73 280.654 262.773 279.31 263.798C277.28 265.344 275.207 266.844 273.093 268.298H82.2488C78.3624 265.633 74.6196 262.807 71.0203 259.821H284.317Z" fill="#CCCCCC"/>
<path d="M214.363 261.856H144.208L145.693 255.414H212.878L214.363 261.856Z" fill="#2F2E41"/>
<path d="M277.833 234.053H259.578C259.166 234.052 258.758 234.133 258.384 234.291C258.011 234.449 257.679 234.68 257.414 234.968C257.159 234.923 256.901 234.901 256.642 234.9C256.073 234.9 255.509 235.002 254.983 235.2C254.457 235.399 253.98 235.69 253.577 236.057C253.175 236.425 252.855 236.861 252.637 237.341C252.42 237.821 252.307 238.336 252.307 238.855C252.307 239.375 252.42 239.89 252.637 240.37C252.855 240.85 253.175 241.286 253.577 241.654C253.98 242.021 254.457 242.312 254.983 242.511C255.509 242.709 256.073 242.811 256.642 242.811C257.295 242.81 257.94 242.674 258.527 242.41L258.832 245.828L260.042 259.336C260.099 259.505 260.176 259.668 260.272 259.821C260.516 260.232 260.877 260.574 261.317 260.813C261.757 261.051 262.259 261.177 262.77 261.178H274.641C275.152 261.177 275.655 261.051 276.095 260.812C276.535 260.574 276.897 260.231 277.142 259.821C277.235 259.667 277.311 259.505 277.369 259.336L280.561 237.426C280.692 237.036 280.722 236.624 280.646 236.222C280.571 235.819 280.394 235.439 280.129 235.111C279.863 234.783 279.517 234.516 279.119 234.332C278.72 234.148 278.279 234.053 277.833 234.053ZM256.642 241.682C255.822 241.681 255.036 241.383 254.456 240.853C253.877 240.323 253.551 239.604 253.551 238.855C253.551 238.106 253.877 237.388 254.456 236.858C255.036 236.328 255.822 236.03 256.642 236.029C256.697 236.029 256.749 236.043 256.805 236.046C256.683 236.502 256.698 236.978 256.849 237.426L258.156 241.305C257.696 241.549 257.174 241.679 256.642 241.682Z" fill="#CCCCCC"/>
<path d="M118.733 163.738C119.338 163.185 120.168 162.866 121.042 162.865H236.601C237.475 162.866 238.305 163.185 238.91 163.738C239.515 164.29 239.845 165.028 239.846 165.787V237.016C239.846 237.775 239.515 238.513 238.911 239.065C238.305 239.618 237.475 239.936 236.601 239.937H121.042C120.168 239.936 119.338 239.618 118.732 239.065C118.128 238.513 117.797 237.775 117.797 237.016V165.787C117.798 165.028 118.128 164.29 118.733 163.738Z" fill="#CCCCCC" stroke="#7E7D7D"/>
<path d="M191.835 219.439H164.802C164.419 219.439 164.053 219.579 163.783 219.826C163.512 220.073 163.361 220.409 163.361 220.758V259.767H193.279V220.758C193.279 220.585 193.242 220.413 193.17 220.253C193.097 220.093 192.991 219.948 192.857 219.825C192.722 219.703 192.563 219.605 192.388 219.539C192.213 219.473 192.025 219.439 191.835 219.439ZM178.409 241.603C177.564 241.6 176.754 241.291 176.157 240.745C175.559 240.199 175.221 239.46 175.217 238.687V234.188C175.218 233.415 175.555 232.674 176.153 232.128C176.752 231.582 177.563 231.275 178.409 231.275C179.255 231.275 180.067 231.582 180.665 232.128C181.264 232.674 181.601 233.415 181.602 234.188V238.687C181.598 239.46 181.26 240.199 180.662 240.745C180.065 241.291 179.255 241.6 178.409 241.603Z" fill="#2F2E41"/>
<path d="M163.269 258.519V262.283C163.269 262.478 163.354 262.665 163.505 262.803C163.656 262.941 163.861 263.018 164.074 263.019H192.567C192.78 263.018 192.984 262.94 193.135 262.802C193.286 262.664 193.371 262.478 193.372 262.283V258.519H163.269Z" fill="#CCCCCC"/>
<path d="M234.144 236.272C235.151 236.272 235.968 235.525 235.968 234.605C235.968 233.685 235.151 232.939 234.144 232.939C233.136 232.939 232.319 233.685 232.319 234.605C232.319 235.525 233.136 236.272 234.144 236.272Z" fill="#2F2E41"/>
<path d="M135.63 232.188C135.546 232.188 135.463 232.203 135.385 232.232C135.308 232.261 135.238 232.304 135.178 232.359C135.119 232.413 135.072 232.477 135.04 232.548C135.008 232.618 134.991 232.694 134.991 232.771V235.772C134.992 235.926 135.059 236.074 135.179 236.183C135.298 236.292 135.461 236.353 135.63 236.353C135.799 236.353 135.961 236.292 136.081 236.183C136.2 236.074 136.268 235.926 136.268 235.772V232.771C136.268 232.694 136.252 232.618 136.22 232.548C136.187 232.477 136.14 232.413 136.081 232.359C136.022 232.304 135.951 232.261 135.874 232.232C135.797 232.203 135.714 232.188 135.63 232.188Z" fill="#2F2E41"/>
<path d="M139.097 232.188C139.013 232.188 138.93 232.203 138.852 232.232C138.775 232.261 138.704 232.304 138.645 232.359C138.586 232.413 138.539 232.477 138.507 232.548C138.475 232.619 138.458 232.694 138.458 232.771V235.772C138.458 235.926 138.525 236.075 138.645 236.184C138.765 236.294 138.927 236.355 139.097 236.355C139.266 236.355 139.428 236.294 139.548 236.184C139.668 236.075 139.735 235.926 139.735 235.772V232.771C139.735 232.694 139.719 232.619 139.686 232.548C139.654 232.477 139.607 232.413 139.548 232.359C139.489 232.304 139.418 232.261 139.341 232.232C139.263 232.203 139.18 232.188 139.097 232.188Z" fill="#2F2E41"/>
<path d="M142.564 232.188C142.48 232.188 142.397 232.203 142.319 232.232C142.242 232.261 142.171 232.304 142.112 232.359C142.053 232.413 142.006 232.477 141.974 232.548C141.942 232.618 141.925 232.694 141.925 232.771V235.772C141.926 235.926 141.993 236.074 142.113 236.183C142.232 236.292 142.395 236.353 142.564 236.353C142.733 236.353 142.895 236.292 143.014 236.183C143.134 236.074 143.202 235.926 143.202 235.772V232.771C143.202 232.694 143.186 232.618 143.153 232.548C143.121 232.477 143.074 232.413 143.015 232.359C142.956 232.304 142.885 232.261 142.808 232.232C142.73 232.203 142.647 232.188 142.564 232.188Z" fill="#2F2E41"/>
<path d="M146.03 232.188C145.947 232.188 145.864 232.203 145.786 232.232C145.709 232.261 145.638 232.304 145.579 232.359C145.52 232.413 145.473 232.477 145.441 232.548C145.409 232.618 145.392 232.694 145.392 232.771V235.772C145.393 235.926 145.46 236.074 145.58 236.183C145.699 236.292 145.861 236.353 146.031 236.353C146.2 236.353 146.362 236.292 146.481 236.183C146.601 236.074 146.668 235.926 146.669 235.772V232.771C146.669 232.694 146.652 232.618 146.62 232.548C146.588 232.477 146.541 232.413 146.482 232.359C146.423 232.304 146.352 232.261 146.275 232.232C146.197 232.203 146.114 232.188 146.03 232.188Z" fill="#2F2E41"/>
<path d="M148.797 260.16C154.127 260.16 158.448 256.213 158.448 251.345C158.448 246.476 154.127 242.529 148.797 242.529C143.467 242.529 139.146 246.476 139.146 251.345C139.146 256.213 143.467 260.16 148.797 260.16Z" fill="#FFB8B8"/>
<path d="M216.219 261.856C221.549 261.856 225.87 257.909 225.87 253.04C225.87 248.171 221.549 244.224 216.219 244.224C210.889 244.224 206.568 248.171 206.568 253.04C206.568 257.909 210.889 261.856 216.219 261.856Z" fill="#FFB8B8"/>
<path d="M315.834 146.633C314.88 145.193 313.75 143.654 311.981 143.184C309.931 142.639 307.826 143.721 306.04 144.789C300.699 147.983 295.556 151.445 290.634 155.158L290.639 155.214C294.471 154.972 297.651 164.28 301.484 164.038C304.252 163.864 307.768 154.117 310.215 152.92C311.143 152.466 312.048 151.86 313.1 151.818C314.407 151.765 315.547 152.599 316.443 153.47C321.741 158.624 323.274 166.505 329.218 171.032C325.47 162.589 320.995 154.43 315.834 146.633Z" fill="#CCCCCC"/>
<path d="M326.032 159.151C328.827 163.762 331.791 168.282 334.926 172.71V172.713C334.907 172.869 334.881 173.025 334.855 173.181C334.476 172.652 334.102 172.121 333.73 171.588C330.917 167.556 328.243 163.448 325.709 159.263C324.506 157.272 323.333 155.266 322.19 153.244C321.307 151.678 320.442 150.102 319.595 148.518C319.354 148.064 319.12 147.609 318.886 147.151C318.337 146.08 317.795 145.002 317.216 143.944C316.555 142.737 315.75 141.476 314.536 140.665C313.984 140.281 313.323 140.048 312.632 139.994C311.657 139.999 310.703 140.249 309.874 140.716C303.595 143.731 297.734 147.422 292.417 151.712C287.093 155.984 282.335 160.81 278.237 166.091C278.111 166.254 277.814 166.098 277.94 165.932C278.441 165.288 278.946 164.654 279.466 164.023C285.907 156.2 293.803 149.472 302.795 144.147C304.306 143.252 305.846 142.399 307.417 141.587C308.207 141.177 309.002 140.774 309.811 140.394C310.585 139.979 311.454 139.733 312.35 139.675C315.431 139.631 317.027 142.818 318.122 144.961C318.463 145.636 318.811 146.309 319.165 146.982C320.497 149.525 321.882 152.047 323.318 154.55C324.202 156.092 325.106 157.626 326.032 159.151Z" fill="#CCCCCC"/>
<path d="M292.114 150.137C291.935 149.955 291.757 149.773 291.577 149.591C290.157 148.156 288.632 146.738 286.682 145.915C285.752 145.51 284.737 145.295 283.707 145.285C282.644 145.312 281.596 145.52 280.617 145.9C280.152 146.07 279.697 146.263 279.249 146.468C278.738 146.703 278.235 146.954 277.735 147.207C276.795 147.682 275.868 148.178 274.953 148.694C273.132 149.722 271.369 150.828 269.662 152.013C268.778 152.627 267.911 153.262 267.063 153.916C266.274 154.524 265.502 155.149 264.745 155.789C264.583 155.926 264.341 155.705 264.503 155.569C264.702 155.399 264.904 155.23 265.106 155.064C265.676 154.593 266.255 154.131 266.843 153.679C267.916 152.852 269.016 152.057 270.145 151.294C271.899 150.107 273.714 149.001 275.589 147.975C276.526 147.462 277.476 146.972 278.439 146.502C278.73 146.361 279.024 146.222 279.321 146.091C279.996 145.78 280.698 145.519 281.419 145.311C282.44 145.009 283.521 144.912 284.587 145.027C285.616 145.164 286.608 145.477 287.51 145.95C289.425 146.928 290.91 148.44 292.356 149.916C292.502 150.066 292.261 150.287 292.114 150.137Z" fill="#CCCCCC"/>
<path d="M278.1 157.041C277.613 157.063 277.132 156.937 276.732 156.683C275.672 155.95 275.7 154.188 276.816 151.298C277.12 150.515 277.597 149.797 278.217 149.188C278.836 148.58 279.586 148.094 280.419 147.761C281.2 147.442 282.045 147.275 282.9 147.27C283.755 147.265 284.602 147.423 285.386 147.734C285.523 147.788 285.659 147.846 285.792 147.909C286.7 148.373 287.552 148.925 288.332 149.555C288.995 150.08 289.702 150.558 290.447 150.982L290.696 151.115L290.46 151.267C284.447 155.134 280.371 157.041 278.1 157.041Z" fill="#CCCCCC"/>
<path d="M301.221 134.03C299.244 134.03 297.328 133.402 295.801 132.256C294.273 131.109 293.229 129.514 292.846 127.742C291.192 128.047 289.675 128.794 288.486 129.886C287.297 130.979 286.488 132.369 286.163 133.881C285.837 135.392 286.009 136.958 286.657 138.381C287.305 139.804 288.4 141.019 289.803 141.874C291.207 142.729 292.856 143.184 294.543 143.184C296.229 143.183 297.878 142.727 299.281 141.871C300.684 141.015 301.778 139.799 302.424 138.376C303.071 136.953 303.242 135.387 302.916 133.876C302.358 133.978 301.79 134.03 301.221 134.03Z" fill="#CCCCCC"/>
<path opacity="0.74" d="M72.6879 146.575C79.7241 146.575 85.4281 141.365 85.4281 134.938C85.4281 128.511 79.7241 123.3 72.6879 123.3C65.6517 123.3 59.9477 128.511 59.9477 134.938C59.9477 141.365 65.6517 146.575 72.6879 146.575Z" fill="#CCCCCC"/>
<path opacity="0.74" d="M85.4281 146.575C92.4643 146.575 98.1683 141.365 98.1683 134.938C98.1683 128.511 92.4643 123.3 85.4281 123.3C78.3919 123.3 72.6879 128.511 72.6879 134.938C72.6879 141.365 78.3919 146.575 85.4281 146.575Z" fill="#007DCB"/>
<path opacity="0.74" d="M79.1658 137.3C86.202 137.3 91.906 132.09 91.906 125.663C91.906 119.235 86.202 114.025 79.1658 114.025C72.1295 114.025 66.4255 119.235 66.4255 125.663C66.4255 132.09 72.1295 137.3 79.1658 137.3Z" fill="#FF6584"/>
<path d="M112.48 122.328L79.7553 131.719L79.9778 132.366L112.702 122.975L112.48 122.328Z" fill="#CCCCCC"/>
<path d="M112.688 123.899C113.508 123.899 114.173 123.292 114.173 122.543C114.173 121.794 113.508 121.187 112.688 121.187C111.868 121.187 111.203 121.794 111.203 122.543C111.203 123.292 111.868 123.899 112.688 123.899Z" fill="#CCCCCC"/>
<path d="M325.134 183.57C327.309 184.97 329.399 186.398 331.789 187.476C331.744 187.642 331.696 187.811 331.652 187.978C331.358 187.852 331.073 187.72 330.787 187.584C328.363 186.425 326.277 184.848 324.001 183.478C322.873 182.766 321.641 182.202 320.342 181.803C318.987 181.431 317.571 181.28 316.158 181.356C310.267 181.62 305.219 184.831 299.744 186.448C297.064 187.242 294.213 187.666 291.418 187.167C288.623 186.669 286.14 185.313 283.672 184.085C281.237 182.871 278.583 181.651 275.739 181.651C273.423 181.654 270.988 182.502 269.748 184.373C269.71 184.429 269.649 184.469 269.579 184.485C269.508 184.5 269.434 184.49 269.372 184.457C269.31 184.423 269.264 184.369 269.245 184.305C269.226 184.241 269.235 184.173 269.269 184.116C269.547 183.689 269.888 183.3 270.283 182.959C271.901 181.559 274.281 181.006 276.467 181.169C279.295 181.379 281.875 182.6 284.321 183.827C286.916 185.129 289.574 186.53 292.573 186.815C295.535 187.099 298.467 186.391 301.214 185.438C306.533 183.59 311.782 180.511 317.699 180.854C320.49 181.017 322.88 182.122 325.134 183.57Z" fill="#CCCCCC"/>
<path d="M92.3081 85.5101V86.1984C92.0587 86.1534 91.8051 86.1306 91.5509 86.1306H87.6682V93.7459C87.6675 94.8734 87.1768 95.9545 86.3041 96.7517C85.4313 97.5489 84.2478 97.9971 83.0135 97.9978H77.2749V99.1709C77.2749 99.6412 77.3771 100.107 77.5755 100.541H76.7812C76.6152 100.1 76.5311 99.637 76.5325 99.1709V97.9978H73.3773V97.3196H76.5325V89.7043C76.5332 88.5768 77.0238 87.4957 77.8966 86.6985C78.7694 85.9013 79.9529 85.4531 81.1872 85.4525H86.9258V84.2657H87.6682V85.4525H91.5508C91.8046 85.4527 92.0578 85.472 92.3081 85.5101Z" fill="#007DCB"/>
<path d="M83.0135 80.0277H72.6498C71.4155 80.0284 70.232 80.4765 69.3592 81.2738C68.4864 82.071 67.9958 83.152 67.9951 84.2795V93.746C67.9958 94.8734 68.4864 95.9545 69.3592 96.7517C70.232 97.5489 71.4155 97.9971 72.6498 97.9977H83.0135C84.2478 97.9971 85.4313 97.5489 86.3041 96.7517C87.1768 95.9545 87.6675 94.8734 87.6682 93.746V84.2659C87.6637 83.1408 87.1714 82.0631 86.2991 81.2688C85.4267 80.4744 84.2453 80.0282 83.0135 80.0277ZM86.9258 93.746C86.9244 94.6934 86.5118 95.6016 85.7784 96.2715C85.045 96.9414 84.0507 97.3184 83.0135 97.3196H72.6498C71.6126 97.3184 70.6183 96.9414 69.8849 96.2715C69.1515 95.6016 68.7389 94.6934 68.7375 93.746V84.2795C68.7389 83.3321 69.1515 82.4239 69.8849 81.7539C70.6183 81.084 71.6126 80.7071 72.6498 80.7058H83.0135C84.0482 80.7069 85.0403 81.0819 85.7734 81.749C86.5064 82.416 86.9207 83.3208 86.9258 84.2659V93.746Z" fill="#CCCCCC"/>
<path d="M76.5325 97.3195V97.9976H77.2748V97.3195H76.5325ZM76.5325 97.3195V97.9976H77.2748V97.3195H76.5325ZM92.308 85.5099C92.0578 85.4718 91.8045 85.4525 91.5508 85.4523H81.1872C79.9529 85.4529 78.7694 85.9011 77.8966 86.6983C77.0238 87.4956 76.5332 88.5767 76.5325 89.7041V99.1708C76.5311 99.6369 76.6152 100.1 76.7812 100.541C77.0945 101.381 77.6878 102.111 78.4779 102.627C79.268 103.144 80.2154 103.422 81.1872 103.423H91.5508C92.7851 103.422 93.9686 102.974 94.8414 102.177C95.7142 101.379 96.2048 100.298 96.2055 99.1708V89.7041C96.2052 88.6966 95.8133 87.7218 95.0994 86.9537C94.3856 86.1855 93.3964 85.6739 92.308 85.5099ZM95.4632 99.1708C95.4618 100.118 95.0491 101.026 94.3157 101.696C93.5823 102.366 92.588 102.743 91.5508 102.745H81.1872C80.15 102.743 79.1557 102.366 78.4224 101.696C77.689 101.026 77.2763 100.118 77.2748 99.1708V89.7041C77.2762 88.7567 77.6889 87.8485 78.4223 87.1785C79.1557 86.5086 80.15 86.1317 81.1872 86.1304H91.5508C92.5883 86.1308 93.5832 86.5074 94.3168 87.1775C95.0504 87.8476 95.4628 88.7564 95.4632 89.7041V99.1708ZM76.5325 97.3195V97.9976H77.2748V97.3195H76.5325Z" fill="#CCCCCC"/>
<path d="M69.2014 185.71H25.1783C24.8718 185.71 24.5779 185.821 24.3609 186.019C24.1438 186.216 24.0213 186.484 24.0201 186.764V189.148C25.4726 194.229 27.231 199.233 29.2873 204.137H69.2015C69.3531 204.138 69.5033 204.11 69.6434 204.057C69.7835 204.005 69.9108 203.927 70.0181 203.829C70.1253 203.731 70.2103 203.615 70.2683 203.487C70.3262 203.359 70.356 203.222 70.3558 203.083V186.764C70.3555 186.485 70.2338 186.217 70.0174 186.019C69.8009 185.821 69.5075 185.71 69.2014 185.71Z" fill="#007DCB"/>
<path d="M65.007 209.43H31.637C32.0341 210.281 32.4387 211.125 32.8582 211.966H65.007C66.8184 211.99 66.7999 209.406 65.007 209.43Z" fill="#E4E4E4"/>
<path d="M65.007 215.242H34.5323C34.9777 216.093 35.4355 216.938 35.9057 217.778H65.007C66.8184 217.802 66.7999 215.221 65.007 215.242Z" fill="#E4E4E4"/>
<path d="M65.007 221.056H37.7802C38.2776 221.907 38.7898 222.752 39.3095 223.592H65.007C66.8184 223.616 66.7999 221.033 65.007 221.056Z" fill="#E4E4E4"/>
<path d="M293.234 64.7612H293.023C293.681 64.7618 294.33 64.902 294.919 65.1709H293.956C292.919 65.172 291.925 65.5488 291.191 66.2188C290.458 66.8887 290.045 67.797 290.044 68.7444V78.2112C290.045 79.1586 290.458 80.0669 291.191 80.7369C291.925 81.4068 292.919 81.7836 293.956 81.7847H294.57C294.077 81.9614 293.552 82.0524 293.023 82.0531H293.234C294.37 82.0519 295.458 81.6393 296.261 80.9058C297.064 80.1723 297.516 79.1778 297.517 78.1405V68.6738C297.516 67.6365 297.064 66.642 296.261 65.9085C295.458 65.175 294.37 64.7624 293.234 64.7612Z" fill="#CCCCCC"/>
<path opacity="0.21" d="M293.234 64.7612H293.023C293.681 64.7618 294.33 64.902 294.919 65.1709H293.956C292.919 65.172 291.925 65.5488 291.191 66.2188C290.458 66.8887 290.045 67.797 290.044 68.7444V78.2112C290.045 79.1586 290.458 80.0669 291.191 80.7369C291.925 81.4068 292.919 81.7836 293.956 81.7847H294.57C294.077 81.9614 293.552 82.0524 293.023 82.0531H293.234C294.37 82.0519 295.458 81.6393 296.261 80.9058C297.064 80.1723 297.516 79.1778 297.517 78.1405V68.6738C297.516 67.6365 297.064 66.642 296.261 65.9085C295.458 65.175 294.37 64.7624 293.234 64.7612Z" fill="black"/>
<path d="M265.766 64.7612H265.554C266.213 64.7618 266.862 64.902 267.451 65.1709H266.488C265.451 65.172 264.457 65.5488 263.723 66.2188C262.99 66.8887 262.577 67.797 262.576 68.7444V78.2112C262.577 79.1586 262.99 80.0669 263.723 80.7369C264.457 81.4068 265.451 81.7836 266.488 81.7847H267.102C266.609 81.9614 266.084 82.0524 265.554 82.0531H265.766C266.902 82.0519 267.99 81.6393 268.793 80.9058C269.596 80.1723 270.048 79.1778 270.049 78.1405V68.6738C270.048 67.6365 269.596 66.642 268.793 65.9085C267.99 65.175 266.902 64.7624 265.766 64.7612Z" fill="#007DCB"/>
<path opacity="0.21" d="M265.766 64.7612H265.554C266.213 64.7618 266.862 64.902 267.451 65.1709H266.488C265.451 65.172 264.457 65.5488 263.723 66.2188C262.99 66.8887 262.577 67.797 262.576 68.7444V78.2112C262.577 79.1586 262.99 80.0669 263.723 80.7369C264.457 81.4068 265.451 81.7836 266.488 81.7847H267.102C266.609 81.9614 266.084 82.0524 265.554 82.0531H265.766C266.902 82.0519 267.99 81.6393 268.793 80.9058C269.596 80.1723 270.048 79.1778 270.049 78.1405V68.6738C270.048 67.6365 269.596 66.642 268.793 65.9085C267.99 65.175 266.902 64.7624 265.766 64.7612Z" fill="black"/>
<path d="M266.53 81.8144C265.493 81.8134 264.498 81.4365 263.765 80.7666C263.031 80.0966 262.619 79.1883 262.618 78.2409V68.7739C262.619 67.8265 263.031 66.9182 263.765 66.2482C264.498 65.5783 265.493 65.2014 266.53 65.2004H267.492C266.904 64.9315 266.254 64.7912 265.596 64.7906H255.232C254.096 64.7918 253.008 65.2044 252.205 65.9379C251.402 66.6714 250.95 67.6659 250.949 68.7033V78.1702C250.95 79.2075 251.402 80.202 252.205 80.9355C253.008 81.669 254.096 82.0816 255.232 82.0828H265.596C266.126 82.0821 266.65 81.9911 267.144 81.8144L266.53 81.8144Z" fill="#007DCB"/>
<path d="M293.998 81.8144C292.961 81.8134 291.966 81.4365 291.233 80.7666C290.5 80.0966 290.087 79.1883 290.086 78.2409V68.7739C290.087 67.8265 290.5 66.9182 291.233 66.2482C291.966 65.5783 292.961 65.2014 293.998 65.2004H294.961C294.372 64.9315 293.722 64.7912 293.064 64.7906H282.7C281.564 64.7918 280.476 65.2044 279.673 65.9379C278.87 66.6714 278.418 67.6659 278.417 68.7033V78.1702C278.418 79.2075 278.87 80.202 279.673 80.9355C280.476 81.669 281.564 82.0816 282.7 82.0828H293.064C293.594 82.0821 294.119 81.9911 294.612 81.8144L293.998 81.8144Z" fill="#CCCCCC"/>
<path d="M306.236 67.1467C310.04 71.9264 313.519 76.9143 316.656 82.0824H310.167C309.032 82.0808 307.943 81.6681 307.14 80.9346C306.337 80.2012 305.885 79.2069 305.884 78.1696V68.703C305.883 68.1677 306.003 67.638 306.236 67.1467Z" fill="#FF6584"/>
<path d="M293.226 87.0495L289.596 82.0822L286.942 78.4508C286.787 78.2387 286.57 78.0711 286.315 77.9672C286.06 77.8634 285.778 77.8277 285.502 77.8643C285.225 77.9008 284.966 78.0081 284.754 78.1738C284.542 78.3394 284.385 78.5566 284.303 78.8001L283.185 82.0822L280.936 88.677C280.847 88.9397 280.848 89.2209 280.939 89.4832C281.03 89.7454 281.206 89.9761 281.444 90.1445C281.682 90.3128 281.97 90.4109 282.271 90.4256C282.571 90.4402 282.87 90.3708 283.126 90.2265L283.924 89.7755C284.085 89.6851 284.268 89.6336 284.456 89.6259C284.645 89.6183 284.833 89.6547 285.001 89.7318C285.17 89.8089 285.315 89.9241 285.421 90.0664C285.527 90.2087 285.592 90.3736 285.609 90.5452L286.341 97.835C286.375 98.1699 286.544 98.481 286.816 98.7079C287.088 98.9348 287.442 99.0612 287.81 99.0624C287.855 99.0624 287.9 99.059 287.948 99.0557L289.069 98.9641C289.262 98.9481 289.45 98.8974 289.622 98.8149C289.794 98.7324 289.946 98.6197 290.07 98.4833C290.195 98.3469 290.288 98.1895 290.345 98.0201C290.403 97.8507 290.423 97.6726 290.405 97.496L289.652 89.9688C289.634 89.792 289.667 89.614 289.749 89.4527C289.83 89.2914 289.956 89.1526 290.115 89.0502C290.274 88.9478 290.46 88.8853 290.653 88.8692C290.847 88.8531 291.042 88.8839 291.218 88.9584L291.381 89.0262C291.674 89.1492 292.002 89.1815 292.317 89.1183C292.631 89.0551 292.914 88.8998 293.123 88.6759C293.332 88.4521 293.455 88.1721 293.474 87.8785C293.492 87.5849 293.405 87.2938 293.226 87.0495Z" fill="#CCCCCC"/>
</svg>
