<svg width="143" height="374" viewBox="0 0 143 374" fill="none" xmlns="http://www.w3.org/2000/svg">
<path d="M110.76 362.813L121.351 362.812L126.389 322.115L110.759 322.115L110.76 362.813Z" fill="#FFB6B6"/>
<path d="M108.059 359.367L111.04 359.367L122.678 354.652L128.916 359.366H128.917C132.442 359.367 135.822 360.762 138.315 363.245C140.808 365.728 142.208 369.096 142.208 372.608V373.038L108.059 373.04L108.059 359.367Z" fill="#2F2E41"/>
<path d="M31.4477 362.813L20.8572 362.812L15.8187 322.115L31.4495 322.115L31.4477 362.813Z" fill="#FFB6B6"/>
<path d="M34.1488 373.04L0 373.038V372.608C0.000245926 369.096 1.40069 365.728 3.89332 363.245C6.38594 360.762 9.76658 359.367 13.2917 359.366H13.2925L19.5302 354.652L31.1684 359.367L34.1494 359.367L34.1488 373.04Z" fill="#2F2E41"/>
<path d="M69.3955 50.9188L58.672 59.0539L30.1858 66.5696C30.1858 66.5696 40.3929 137.937 35.5755 142.737C30.758 147.536 35.1028 147.665 34.1348 153.9C33.1668 160.134 29.3093 176.595 29.3093 176.595H114.33C114.33 176.595 115.015 166.365 110.824 164.15C106.633 161.934 114.687 151.594 111.262 149.865C107.837 148.136 112.655 133.138 112.655 133.138L123.095 84.034L95.3257 62.3888L91.1025 52.2516L69.3955 50.9188Z" fill="#007DCB"/>
<path d="M82.7759 114.692C84.8251 114.692 86.4862 113.037 86.4862 110.996C86.4862 108.954 84.8251 107.299 82.7759 107.299C80.7268 107.299 79.0657 108.954 79.0657 110.996C79.0657 113.037 80.7268 114.692 82.7759 114.692Z" fill="#F2F2F2"/>
<path d="M29.3092 176.595L25.8032 266.537C25.8032 266.537 10.6653 332.967 13.2948 334.713C15.9243 336.46 17.0382 346.873 17.0382 346.873L31.9387 348.62C31.9387 348.62 31.9387 341.634 35.4447 339.014C38.9507 336.394 71.3812 213.27 71.3812 213.27L103.02 332.313C103.02 332.313 103.812 339.014 106.441 339.014C109.071 339.014 109.947 348.62 109.947 348.62H124.848V339.014C124.848 339.014 131.543 336.899 128.913 329.914C126.284 322.928 114.33 176.595 114.33 176.595H29.3092Z" fill="#2F2E41"/>
<path d="M80.531 45.5591C90.4546 45.5591 98.4993 37.5445 98.4993 27.6581C98.4993 17.7716 90.4546 9.75708 80.531 9.75708C70.6074 9.75708 62.5627 17.7716 62.5627 27.6581C62.5627 37.5445 70.6074 45.5591 80.531 45.5591Z" fill="#FFB6B6"/>
<path opacity="0.1" d="M111.262 108.047L114.768 110.667L116.521 98.442L111.262 108.047Z" fill="black"/>
<path d="M31.8661 66.5002C31.8661 66.5002 27.4836 65.627 24.8541 73.4859C22.2246 81.3449 12.5831 111.034 12.5831 116.274C12.5831 121.513 72.6267 144.63 72.6267 144.63L66.3791 122.795L38.878 108.415L31.8661 66.5002Z" fill="#007DCB"/>
<path d="M75.4118 141.393C81.0656 141.393 85.6489 136.827 85.6489 131.194C85.6489 125.562 81.0656 120.996 75.4118 120.996C69.758 120.996 65.1747 125.562 65.1747 131.194C65.1747 136.827 69.758 141.393 75.4118 141.393Z" fill="#FFB6B6"/>
<path opacity="0.1" d="M38.0765 97.5985L38.878 108.415L64.3087 121.713L41.6896 106.597L38.0765 97.5985Z" fill="black"/>
<path d="M99.2118 99.1406H98.8819V90.1367C98.8819 89.4524 98.7466 88.7748 98.4837 88.1425C98.2209 87.5103 97.8355 86.9358 97.3498 86.4519C96.8641 85.968 96.2875 85.5841 95.6529 85.3222C95.0182 85.0603 94.3381 84.9255 93.6511 84.9255H74.5036C73.8167 84.9255 73.1365 85.0603 72.5019 85.3222C71.8672 85.5841 71.2906 85.9679 70.8049 86.4518C70.3192 86.9358 69.9339 87.5102 69.671 88.1425C69.4081 88.7747 69.2728 89.4524 69.2728 90.1367V139.533C69.2728 140.217 69.4081 140.895 69.671 141.527C69.9339 142.159 70.3191 142.734 70.8048 143.218C71.2906 143.702 71.8672 144.085 72.5018 144.347C73.1364 144.609 73.8167 144.744 74.5036 144.744H93.6511C94.338 144.744 95.0182 144.609 95.6528 144.347C96.2874 144.085 96.8641 143.702 97.3498 143.218C97.8355 142.734 98.2208 142.159 98.4837 141.527C98.7466 140.895 98.8819 140.217 98.8819 139.533V105.55H99.2118V99.1406Z" fill="#F0F0F0"/>
<path d="M123.095 84.0341C123.095 84.0341 125.724 85.7805 127.477 93.6395C129.23 101.498 140.625 131.188 136.242 138.174C131.86 145.159 130.566 152.615 115.665 142.137L95.0466 123.329L109.947 109.357L116.083 113.724L123.095 84.0341Z" fill="#007DCB"/>
<path d="M84.3112 106.941C86.7316 106.941 88.6937 104.987 88.6937 102.575C88.6937 100.164 86.7316 98.2091 84.3112 98.2091C81.8908 98.2091 79.9287 100.164 79.9287 102.575C79.9287 104.987 81.8908 106.941 84.3112 106.941Z" fill="#007DCB"/>
<path d="M96.9979 122.339C102.652 122.339 107.235 117.773 107.235 112.14C107.235 106.508 102.652 101.942 96.9979 101.942C91.3441 101.942 86.7607 106.508 86.7607 112.14C86.7607 117.773 91.3441 122.339 96.9979 122.339Z" fill="#FFB6B6"/>
<path opacity="0.1" d="M37.5935 130.242L66.9811 143.193L36.777 137.312L37.5935 130.242Z" fill="black"/>
<path d="M62.4031 31.2256L59.936 21.8716C59.2923 19.4309 58.6433 16.9409 58.7879 14.4215C58.9325 11.9021 60.0052 9.30229 62.1357 7.93742C64.2662 6.57254 67.5185 6.89496 68.8895 9.01689C69.15 5.62868 72.2439 3.02247 75.5265 2.09919C78.8091 1.17591 82.2943 1.54104 85.7016 1.69681C89.109 1.85258 92.7055 1.74384 95.6463 0.0222168C95.8704 0.692088 95.8557 1.41848 95.6046 2.07878C95.3534 2.73908 94.8813 3.29283 94.2679 3.64655C94.9989 3.84528 95.7784 3.75991 96.4487 3.40773C97.1189 3.05555 97.6299 2.46285 97.8781 1.74958C97.9004 3.71185 97.1725 5.60906 95.842 7.05614C97.1111 6.42891 98.569 6.29448 99.932 6.67899C101.295 7.06351 102.466 7.93947 103.216 9.13644C104.717 11.7286 103.876 14.9839 102.998 17.8456L98.4916 32.5333C97.8082 30.3006 97.6792 27.9433 97.3136 25.6376C96.948 23.3319 96.2976 20.9773 94.7699 19.2075C93.2421 17.4377 90.6471 16.4127 88.4764 17.2915C87.2585 17.7845 86.3299 18.7848 85.2303 19.5026C82.9743 20.9756 80.1046 21.1868 77.4241 20.8871C74.7436 20.5874 72.1315 19.8269 69.4515 19.5232C67.7734 19.333 65.9008 19.3834 64.6347 20.4969C63.7639 21.3983 63.1888 22.5422 62.9858 23.7768C62.3881 26.2377 62.1532 28.7721 62.2884 31.3003" fill="#2F2E41"/>
</svg>
