<svg width="538" height="498" viewBox="0 0 538 498" fill="none" xmlns="http://www.w3.org/2000/svg">
<path d="M519.171 208.738C492.267 246.252 441.499 254.842 399.493 241.776C385.749 237.397 372.489 231.378 359.954 223.829C352.674 219.518 345.567 214.79 338.606 209.751C336.893 208.516 335.18 207.263 333.485 205.984C332.329 205.123 331.178 204.251 330.03 203.369C315.655 192.342 301.842 180.244 288.262 168.216C254.361 138.191 219.531 107.241 177.879 92.9156C169.298 89.9656 158.197 88.5856 152.89 96.5113C148.286 103.393 151.096 113.135 154.992 120.516C169.443 147.858 195.674 165.121 221.929 178.396C248.183 191.671 275.994 202.426 298.817 221.835C321.641 241.245 339.064 272.093 334.396 303.232C330.373 330.067 310.278 351.869 286.915 361.371C263.552 370.867 237.495 369.544 213.208 363.378C188.922 357.206 165.867 346.438 142.428 337.157C128.296 331.555 109.822 327.681 100.445 340.5C92.5256 351.331 97.0774 368.417 106.721 377.432C116.365 386.446 129.417 389.466 141.87 392.175C180.538 400.595 219.206 409.012 257.874 417.427C269.735 420.004 281.876 422.701 292.21 429.563C302.545 436.419 310.882 448.396 310.586 461.582C310.29 474.579 301.564 486.062 290.869 491.817C280.18 497.565 267.837 498.451 255.929 497.831C211.304 495.501 83.3695 418.2 52.685 408.318C32.9679 401.975 11.4104 392.656 3.0961 372.158C-7.25599 346.64 9.77892 315.767 33.0317 304.112C56.2788 292.452 83.2301 295.034 108.567 298.959C133.905 302.884 160.078 307.879 184.742 300.422C209.405 292.964 232.002 268.655 229.57 240.877C227.45 216.708 207.484 198.495 186.472 190.468C170.024 184.182 152.524 182.473 135.246 179.643C130.45 178.864 125.672 177.991 120.94 176.914C108.822 174.146 97.0008 170.009 85.6687 164.57C73.7771 158.875 62.4799 151.805 51.9709 143.483C43.5889 136.855 35.7558 129.439 28.5613 121.32C27.4639 120.08 26.3781 118.811 25.304 117.516C24.2823 116.275 23.2719 115.009 22.285 113.718C9.44217 96.9861 -0.0449846 76.3805 2.80017 55.1482C5.63908 33.9728 20.7754 16.3425 38.7972 7.87233C49.213 2.97889 60.4476 0.788547 71.8215 0.472024C80.138 0.290797 88.4523 0.94347 96.6593 2.42181C134.636 9.04346 169.437 29.1617 202.305 50.9448C235.167 72.7279 267.192 96.638 302.916 112.167C338.641 127.702 379.306 134.279 415.546 120.232C451.787 106.191 481.56 67.8787 479.789 25.9901C503.826 48.5582 524.252 76.9249 533.297 110.071C542.343 143.217 538.708 181.491 519.171 208.738Z" fill="#3F3D56"/>
<path d="M345.984 165.447C348.318 165.447 350.209 163.385 350.209 160.84C350.209 158.296 348.318 156.233 345.984 156.233C343.65 156.233 341.759 158.296 341.759 160.84C341.759 163.385 343.65 165.447 345.984 165.447Z" fill="#007DCB"/>
<path d="M495.197 107.191C498.805 107.191 501.73 104.002 501.73 100.068C501.73 96.1337 498.805 92.9446 495.197 92.9446C491.589 92.9446 488.665 96.1337 488.665 100.068C488.665 104.002 491.589 107.191 495.197 107.191Z" fill="#FF6584"/>
<path d="M66.7168 326.798C68.0499 326.798 69.1306 325.619 69.1306 324.166C69.1306 322.712 68.0499 321.534 66.7168 321.534C65.3837 321.534 64.303 322.712 64.303 324.166C64.303 325.619 65.3837 326.798 66.7168 326.798Z" fill="#FF6584"/>
<path d="M136.001 172.87C136.002 175.152 135.749 177.427 135.246 179.643C130.45 178.864 125.672 177.991 120.94 176.915C108.822 174.146 97.0008 170.009 85.6688 164.57C87.4911 158.155 91.3627 152.665 96.5808 149.096C101.799 145.528 108.017 144.118 114.108 145.122C120.198 146.126 125.756 149.478 129.773 154.57C133.79 159.661 136 166.154 136.001 172.87Z" fill="#FF6584"/>
<path d="M453.395 148.972C454.758 148.972 455.863 147.767 455.863 146.28C455.863 144.793 454.758 143.588 453.395 143.588C452.031 143.588 450.926 144.793 450.926 146.28C450.926 147.767 452.031 148.972 453.395 148.972Z" fill="#F0F0F0"/>
<path d="M227.542 445.237C228.906 445.237 230.011 444.032 230.011 442.545C230.011 441.059 228.906 439.854 227.542 439.854C226.179 439.854 225.073 441.059 225.073 442.545C225.073 444.032 226.179 445.237 227.542 445.237Z" fill="#F0F0F0"/>
<path d="M262.959 482.587C264.322 482.587 265.427 481.382 265.427 479.895C265.427 478.409 264.322 477.203 262.959 477.203C261.595 477.203 260.49 478.409 260.49 479.895C260.49 481.382 261.595 482.587 262.959 482.587Z" fill="#F0F0F0"/>
<path d="M44.0735 376.235C45.437 376.235 46.5422 375.03 46.5422 373.543C46.5422 372.057 45.437 370.852 44.0735 370.852C42.7101 370.852 41.6049 372.057 41.6049 373.543C41.6049 375.03 42.7101 376.235 44.0735 376.235Z" fill="#F0F0F0"/>
<path d="M165.418 326.225C166.782 326.225 167.887 325.019 167.887 323.533C167.887 322.046 166.782 320.841 165.418 320.841C164.055 320.841 162.95 322.046 162.95 323.533C162.95 325.019 164.055 326.225 165.418 326.225Z" fill="#F0F0F0"/>
<path d="M153.226 59.0792C154.589 59.0792 155.694 57.874 155.694 56.3875C155.694 54.9009 154.589 53.6958 153.226 53.6958C151.862 53.6958 150.757 54.9009 150.757 56.3875C150.757 57.874 151.862 59.0792 153.226 59.0792Z" fill="#F0F0F0"/>
<path d="M302.439 269.883C303.803 269.883 304.908 268.678 304.908 267.192C304.908 265.705 303.803 264.5 302.439 264.5C301.076 264.5 299.97 265.705 299.97 267.192C299.97 268.678 301.076 269.883 302.439 269.883Z" fill="#F0F0F0"/>
<path d="M321.018 316.729C322.382 316.729 323.487 315.524 323.487 314.037C323.487 312.55 322.382 311.345 321.018 311.345C319.655 311.345 318.55 312.55 318.55 314.037C318.55 315.524 319.655 316.729 321.018 316.729Z" fill="#F0F0F0"/>
<path d="M98.4941 64.9789C98.5122 78.5695 95.567 91.9702 89.9013 104.076C89.1523 105.671 88.3588 107.239 87.5208 108.779C79.224 124.056 66.8106 136.174 51.9709 143.483C43.5889 136.855 35.7558 129.439 28.5613 121.32C27.4639 120.079 26.3781 118.811 25.3039 117.515C24.2822 116.275 23.2718 115.008 22.285 113.717C9.44211 96.9857 -0.0450366 76.38 2.80012 55.1477C5.63903 33.9723 20.7754 16.342 38.7971 7.87183C49.213 2.97838 60.4476 0.78808 71.8214 0.471558C80.7147 9.0348 87.7255 19.6713 92.334 31.5921C92.9146 33.0924 93.4487 34.6117 93.9538 36.15C96.967 45.4062 98.5027 55.157 98.4941 64.9789Z" fill="#007DCB"/>
<path d="M134.491 69.4108C134.491 82.5972 122.682 94.8276 101.235 103.861C96.9439 105.672 92.3513 107.311 87.5208 108.78C69.441 114.275 47.924 117.32 25.304 117.516C24.2823 116.275 23.2719 115.009 22.285 113.718C22.5288 113.724 22.7726 113.724 23.0165 113.724C47.5815 113.724 70.8868 110.331 89.9014 104.076C93.4138 102.918 96.7815 101.665 99.9804 100.316C119.698 92.0169 131.008 80.7487 131.008 69.4108C131.008 58.073 119.697 46.8111 99.9804 38.5055C98.0297 37.6826 96.0209 36.8976 93.9539 36.1506C93.4487 34.6123 92.9146 33.093 92.334 31.5927C95.4227 32.6435 98.3896 33.7661 101.235 34.9605C122.682 43.994 134.491 56.2308 134.491 69.4108Z" fill="#E4E4E4"/>
<path d="M26.6556 22.3626C28.0191 22.3626 29.1243 21.1574 29.1243 19.6709C29.1243 18.1843 28.0191 16.9792 26.6556 16.9792C25.2922 16.9792 24.187 18.1843 24.187 19.6709C24.187 21.1574 25.2922 22.3626 26.6556 22.3626Z" fill="#F0F0F0"/>
<path d="M78.3288 39.4548C79.6922 39.4548 80.7975 38.2497 80.7975 36.7631C80.7975 35.2765 79.6922 34.0714 78.3288 34.0714C76.9654 34.0714 75.8601 35.2765 75.8601 36.7631C75.8601 38.2497 76.9654 39.4548 78.3288 39.4548Z" fill="#F0F0F0"/>
<path d="M51.6213 90.1594C64.8799 90.1594 75.6281 78.4403 75.6281 63.984C75.6281 49.5277 64.8799 37.8085 51.6213 37.8085C38.3627 37.8085 27.6146 49.5277 27.6146 63.984C27.6146 78.4403 38.3627 90.1594 51.6213 90.1594Z" fill="#F0F0F0"/>
<path opacity="0.3" d="M494.967 202.521C489.578 204.256 477.699 205.535 464.636 206.32C451.578 207.098 437.255 207.44 423.112 207.769C398.355 208.352 373.6 208.936 348.848 209.523C345.445 209.605 342.031 209.681 338.606 209.751C336.893 208.516 335.18 207.263 333.485 205.984C336.522 206.003 339.558 205.984 342.571 205.921C355.443 205.642 366.341 204.547 378.754 204.028C397.856 203.224 418.478 203.857 438.387 204.18C458.296 204.509 480.98 204.389 494.967 202.521Z" fill="#F0F0F0"/>
<path opacity="0.3" d="M115.007 402.077L36.0915 330.397L112.756 404.948C112.905 405.221 113.111 405.451 113.357 405.619C113.603 405.788 113.883 405.89 114.173 405.917C114.463 405.944 114.754 405.896 115.023 405.776C115.292 405.655 115.531 405.467 115.72 405.226C115.909 404.985 116.043 404.698 116.11 404.389C116.177 404.081 116.175 403.759 116.105 403.451C116.036 403.144 115.9 402.858 115.709 402.619C115.518 402.38 115.277 402.194 115.007 402.077H115.007Z" fill="#F0F0F0"/>
<path d="M55.1049 130.613C56.4683 130.613 57.5736 129.408 57.5736 127.922C57.5736 126.435 56.4683 125.23 55.1049 125.23C53.7415 125.23 52.6362 126.435 52.6362 127.922C52.6362 129.408 53.7415 130.613 55.1049 130.613Z" fill="#F0F0F0"/>
</svg>
