<svg width="129" height="85" viewBox="0 0 129 85" fill="none" xmlns="http://www.w3.org/2000/svg">
<path d="M129 84.3303H0V85.0001H129V84.3303Z" fill="#E6E6E6"/>
<path d="M74.8998 83.2824H53.9224L54.6335 72.0925H74.1887L74.8998 83.2824Z" fill="#E6E6E6"/>
<path d="M76.3219 81.9917H52.8558V84.5741H76.3219V81.9917Z" fill="#E6E6E6"/>
<path d="M104.588 0H24.4121C23.8463 0 23.3037 0.272081 22.9036 0.756379C22.5035 1.24068 22.2788 1.89752 22.2788 2.58242V61.763H106.721V2.58242C106.721 2.24329 106.666 1.90749 106.559 1.59417C106.452 1.28086 106.294 0.996179 106.096 0.756379C105.898 0.516579 105.663 0.326356 105.404 0.196577C105.145 0.0667982 104.868 2.93248e-07 104.588 0H104.588Z" fill="#007DCB"/>
<path d="M22.2788 61.7629V71.4467C22.2788 71.7858 22.334 72.1216 22.4412 72.4349C22.5484 72.7482 22.7055 73.0329 22.9036 73.2727C23.1017 73.5125 23.3369 73.7027 23.5957 73.8324C23.8545 73.9622 24.1319 74.029 24.4121 74.029H104.588C105.154 74.029 105.696 73.7569 106.096 73.2727C106.496 72.7884 106.721 72.1315 106.721 71.4467V61.7629H22.2788Z" fill="#E6E6E6"/>
<path d="M102.632 5.38013H26.5453V57.0282H102.632V5.38013Z" fill="#E6E6E6"/>
<path d="M64.5889 70.3708C65.7671 70.3708 66.7222 69.2145 66.7222 67.7883C66.7222 66.362 65.7671 65.2058 64.5889 65.2058C63.4107 65.2058 62.4556 66.362 62.4556 67.7883C62.4556 69.2145 63.4107 70.3708 64.5889 70.3708Z" fill="#007DCB"/>
<path d="M28.9178 7.56152C29.1413 7.56152 29.3226 7.3421 29.3226 7.07141C29.3226 6.80073 29.1413 6.5813 28.9178 6.5813C28.6942 6.5813 28.5129 6.80073 28.5129 7.07141C28.5129 7.3421 28.6942 7.56152 28.9178 7.56152Z" fill="white"/>
<path d="M30.4544 7.56152C30.678 7.56152 30.8593 7.3421 30.8593 7.07141C30.8593 6.80073 30.678 6.5813 30.4544 6.5813C30.2308 6.5813 30.0496 6.80073 30.0496 7.07141C30.0496 7.3421 30.2308 7.56152 30.4544 7.56152Z" fill="white"/>
<path d="M31.9911 7.56152C32.2147 7.56152 32.396 7.3421 32.396 7.07141C32.396 6.80073 32.2147 6.5813 31.9911 6.5813C31.7675 6.5813 31.5863 6.80073 31.5863 7.07141C31.5863 7.3421 31.7675 7.56152 31.9911 7.56152Z" fill="white"/>
<path d="M100.44 8.73657H28.5129V52.1129H100.44V8.73657Z" fill="white"/>
<path d="M93.4765 53.3411C93.3372 53.3414 93.2038 53.4086 93.1054 53.5279C93.007 53.6472 92.9518 53.8089 92.9518 53.9774C92.9518 54.146 93.007 54.3077 93.1054 54.427C93.2038 54.5463 93.3372 54.6135 93.4765 54.6138H107.432C107.571 54.6135 107.705 54.5463 107.803 54.427C107.901 54.3077 107.957 54.146 107.957 53.9774C107.957 53.8089 107.901 53.6472 107.803 53.5279C107.705 53.4086 107.571 53.3414 107.432 53.3411H93.4765Z" fill="#E6E6E6"/>
</svg>
