<svg width="36" height="82" viewBox="0 0 36 82" fill="none" xmlns="http://www.w3.org/2000/svg">
<path d="M24.6 70.6L18 77.2L11.4 70.6C10.6 69.8 9.4 69.8 8.6 70.6C7.8 71.4 7.8 72.6 8.6 73.4L16.6 81.4C17 81.8 17.5 82 18 82C18.5 82 19 81.8 19.4 81.4L27.4 73.4C28.2 72.6 28.2 71.4 27.4 70.6C26.6 69.8 25.4 69.8 24.6 70.6Z" fill="#F5F5F5" fill-opacity="0.7"/>
<path d="M27.4 59.6C26.6 58.8 25.4 58.8 24.6 59.6L18 66.2L11.4 59.6C10.6 58.8 9.4 58.8 8.6 59.6C7.8 60.4 7.8 61.6 8.6 62.4L16.6 70.4C17 70.8 17.5 71 18 71C18.5 71 19 70.8 19.4 70.4L27.4 62.4C28.2 61.6 28.2 60.4 27.4 59.6Z" fill="#F5F5F5" fill-opacity="0.7"/>
<path d="M36 36V18C36 8.1 27.9 0 18 0C8.1 0 0 8.1 0 18V36C0 45.9 8.1 54 18 54C27.9 54 36 45.9 36 36ZM18 50C10.3 50 4 43.7 4 36V18C4 10.3 10.3 4 18 4C25.7 4 32 10.3 32 18V36C32 43.7 25.7 50 18 50Z" fill="#F5F5F5" fill-opacity="0.7"/>
<path d="M18 11C16.9 11 16 11.9 16 13V19C16 20.1 16.9 21 18 21C19.1 21 20 20.1 20 19V13C20 11.9 19.1 11 18 11Z" fill="#F5F5F5" fill-opacity="0.7"/>
</svg>
