<svg width="68" height="61" viewBox="0 0 68 61" fill="none" xmlns="http://www.w3.org/2000/svg">
<path d="M55.9068 19.7511C55.1832 19.501 54.4535 19.2694 53.7183 19.0563C53.8418 18.548 53.9555 18.0458 54.0564 17.5524C55.7132 9.45094 54.6301 2.92421 50.9307 0.775295C47.3837 -1.28479 41.5829 0.863317 35.7245 5.99936C35.1472 6.50644 34.5826 7.02814 34.0314 7.56395C33.6624 7.20766 33.2869 6.85827 32.905 6.51598C26.7651 1.02438 20.6108 -1.29014 16.9154 0.864923C13.3716 2.93143 12.3222 9.06701 13.8138 16.745C13.9622 17.5054 14.1297 18.2619 14.3163 19.0138C13.4452 19.2631 12.6046 19.5285 11.8001 19.811C4.60151 22.3393 0.00439453 26.3014 0.00439453 30.4111C0.00439453 34.6557 4.93961 38.9131 12.4372 41.4947C13.0451 41.7031 13.658 41.8962 14.2754 42.0739C14.0749 42.8837 13.8969 43.6989 13.7416 44.5187C12.3196 52.0635 13.43 58.054 16.9642 60.1074C20.6145 62.228 26.7412 60.0486 32.7066 54.7953C33.1903 54.3683 33.6634 53.9291 34.1254 53.4782C34.7223 54.0584 35.3352 54.6217 35.9633 55.1675C41.742 60.1765 47.449 62.1991 50.9798 60.1401C54.6266 58.0134 55.812 51.5779 54.2731 43.7482C54.1519 43.1348 54.016 42.5244 53.8655 41.9177C54.2957 41.7892 54.718 41.6571 55.1297 41.5196C62.9242 38.9182 67.9957 34.7124 67.9957 30.4111C67.9957 26.2864 63.2501 22.2976 55.9068 19.7511V19.7511ZM54.2163 38.7424C53.8445 38.8663 53.4631 38.9859 53.0743 39.1023C52.2137 36.3581 51.0526 33.4403 49.6314 30.4253C50.9875 27.4823 52.1041 24.6017 52.9404 21.8754C53.636 22.0782 54.3108 22.292 54.9615 22.5175C61.2534 24.6996 65.0912 27.9254 65.0912 30.4111C65.0912 33.0587 60.9464 36.4959 54.2163 38.7424V38.7424ZM51.4239 44.3165C52.1043 47.7785 52.2013 50.9087 51.7506 53.356C51.3458 55.5549 50.5315 57.0208 49.5244 57.608C47.3818 58.8575 42.7996 57.2335 37.8577 52.9496C37.2735 52.4421 36.7035 51.9184 36.1481 51.3791C38.0641 49.2684 39.9788 46.8148 41.8475 44.0896C45.1344 43.7958 48.2397 43.3153 51.0558 42.6596C51.1944 43.2233 51.3176 43.776 51.4239 44.3165V44.3165ZM23.1841 57.3921C21.0907 58.1367 19.4233 58.1581 18.4154 57.5727C16.2708 56.3268 15.3792 51.5166 16.5953 45.0645C16.7399 44.3021 16.9054 43.5438 17.0917 42.7907C19.8767 43.4114 22.9594 43.8576 26.2541 44.1268C28.1355 46.7934 30.1054 49.2443 32.0907 51.3906C31.6688 51.8018 31.2369 52.2026 30.7954 52.5924C28.1573 54.9152 25.5139 56.5633 23.1841 57.3921V57.3921ZM13.3769 38.7261C10.0615 37.5845 7.32355 36.101 5.44689 34.4821C3.76038 33.0274 2.90916 31.583 2.90916 30.4111C2.90916 27.9171 6.60008 24.736 12.7562 22.574C13.5033 22.3118 14.2852 22.0643 15.0966 21.8321C15.9476 24.6199 17.0636 27.5348 18.4104 30.4823C17.046 33.4734 15.9141 36.4349 15.0549 39.2556C14.4913 39.093 13.9318 38.9164 13.3769 38.7261V38.7261ZM16.6644 16.1829C15.3866 9.60478 16.2352 4.64264 18.3708 3.39723C20.6453 2.07074 25.6751 3.96201 30.9766 8.70396C31.3223 9.01388 31.6624 9.33007 31.9967 9.6524C30.0212 11.7893 28.0694 14.222 26.2047 16.8729C23.007 17.1715 19.946 17.6509 17.1318 18.2933C16.9584 17.594 16.8026 16.8904 16.6644 16.1831V16.1829ZM45.9928 23.4783C45.3281 22.3217 44.6387 21.1796 43.9252 20.0529C46.0945 20.3293 48.173 20.6961 50.1249 21.1445C49.539 23.0365 48.8086 25.0145 47.9489 27.0425C47.3205 25.8414 46.6683 24.6531 45.9928 23.4783V23.4783ZM34.0327 11.7435C35.3724 13.2057 36.7141 14.8379 38.0338 16.6091C35.3567 16.4817 32.6751 16.4812 29.9979 16.6075C31.3189 14.8527 32.6721 13.2225 34.0327 11.7435ZM21.9959 23.4983C21.3288 24.6637 20.6888 25.8446 20.0764 27.0401C19.2308 25.0193 18.5071 23.0323 17.9161 21.1134C19.856 20.6763 21.9247 20.3188 24.0802 20.0475C23.3587 21.1811 22.6637 22.3316 21.9959 23.4981V23.4983ZM24.1421 40.9829C21.9151 40.7324 19.8154 40.3935 17.876 39.9681C18.4762 38.015 19.2159 35.9857 20.0799 33.9216C20.6947 35.1179 21.3373 36.2995 22.0073 37.4655C22.6962 38.6641 23.4096 39.838 24.1421 40.9829ZM34.1129 49.2847C32.7361 47.7886 31.363 46.1333 30.022 44.3531C31.3239 44.4045 32.6511 44.4307 34 44.4307C35.3859 44.4307 36.7558 44.3994 38.1042 44.3389C36.7802 46.1513 35.4435 47.809 34.1129 49.2847ZM47.9762 33.8162C48.8851 35.903 49.6511 37.9216 50.2593 39.8412C48.288 40.2945 46.1596 40.6594 43.9169 40.9304C44.6356 39.7828 45.3315 38.6209 46.0042 37.4454C46.6882 36.2505 47.3457 35.0405 47.9762 33.8162V33.8162ZM43.4883 35.9835C42.4584 37.7858 41.3706 39.5539 40.2266 41.2849C38.1543 41.4328 36.0775 41.5062 34 41.5051C31.8841 41.5051 29.826 41.4388 27.8442 41.3093C26.6703 39.5822 25.5618 37.8111 24.5208 35.9996H24.5211C23.4851 34.1977 22.5174 32.3568 21.62 30.481C22.5151 28.6046 23.4799 26.7629 24.5123 24.9597L24.5121 24.9599C25.5442 23.1562 26.6439 21.3926 27.8089 19.673C29.8308 19.5189 31.9043 19.4386 33.9998 19.4386H34C36.1051 19.4386 38.1812 19.5197 40.2027 19.6749C41.3559 21.3919 42.4486 23.1494 43.4787 24.9441C44.5146 26.7434 45.4922 28.5762 46.4098 30.4395C45.5016 32.3219 44.5271 34.171 43.4883 35.9835V35.9835ZM49.48 3.31001C51.7567 4.63274 52.6421 9.96676 51.2117 16.9617C51.1203 17.408 51.0178 17.8625 50.9062 18.3235C48.0851 17.6675 45.0221 17.1797 41.8151 16.8766C39.9469 14.1966 38.011 11.7601 36.0677 9.65079C36.577 9.15624 37.0984 8.67452 37.6315 8.20606C42.6511 3.80576 47.3425 2.06833 49.48 3.31001V3.31001ZM34 24.2951C37.3531 24.2951 40.0715 27.0334 40.0715 30.4111C40.0715 33.7889 37.3531 36.5272 34 36.5272C30.647 36.5272 27.9286 33.7889 27.9286 30.4111C27.9286 27.0334 30.647 24.2951 34 24.2951V24.2951Z" fill="#00D8FF"/>
</svg>
