<svg width="141" height="85" viewBox="0 0 141 85" fill="none" xmlns="http://www.w3.org/2000/svg">
<g clip-path="url(#clip0)">
<path d="M8.44249 65.2082C4.30322 63.6823 0.710059 60.0319 0.254242 55.5923C4.27258 58.2342 9.08353 59.3505 13.8359 58.7438C15.6678 58.5031 17.6807 58.0421 19.2483 59.0324C20.2238 59.6485 20.8293 60.7426 21.1072 61.8728C21.385 63.0032 21.3724 64.1831 21.3582 65.3479L21.4871 65.6077C17.1632 66.4583 12.5818 66.7342 8.44249 65.2082Z" fill="#F0F0F0"/>
<path d="M0.343689 55.5702C2.45306 58.5837 5.44576 60.847 8.89671 62.0387C9.63513 62.3086 10.4109 62.4588 11.1955 62.4839C11.9606 62.4833 12.7115 62.2751 13.3703 61.881C13.9919 61.5259 14.5871 61.0899 15.2831 60.8941C15.6407 60.7993 16.0142 60.7822 16.3788 60.8439C16.7435 60.9056 17.0912 61.0447 17.3991 61.2521C18.1796 61.7487 18.7374 62.4998 19.2578 63.2536C19.8355 64.0906 20.4226 64.9691 21.3244 65.4772C21.4337 65.5388 21.3331 65.707 21.2239 65.6456C19.6548 64.7616 19.0738 62.8865 17.7382 61.7466C17.115 61.2147 16.3299 60.8699 15.5062 61.0418C14.786 61.1921 14.1718 61.6412 13.5456 62.0062C12.9084 62.4003 12.1858 62.6303 11.4407 62.6761C10.6574 62.6915 9.87718 62.5718 9.1335 62.322C7.45038 61.7867 5.86079 60.9865 4.42295 59.9508C2.77548 58.778 1.33814 57.3282 0.17309 55.6642C0.101024 55.5611 0.272093 55.4679 0.343689 55.5702V55.5702Z" fill="white"/>
<path d="M7.76323 61.7213C7.48734 62.2809 7.02414 62.7229 6.45636 62.9684C5.88857 63.2139 5.25317 63.2468 4.66363 63.0613C4.54446 63.0234 4.59705 62.834 4.71637 62.8719C5.26503 63.0457 5.85691 63.0149 6.38517 62.7853C6.91343 62.5556 7.34328 62.1421 7.59714 61.6195C7.65244 61.506 7.81821 61.6085 7.76323 61.7213V61.7213Z" fill="white"/>
<path d="M13.0786 62.1032C12.6899 60.8866 11.863 59.8632 10.7628 59.237C10.6537 59.175 10.7544 59.0067 10.8633 59.0686C12.007 59.7224 12.8654 60.7893 13.2671 62.0562C13.3053 62.177 13.1166 62.2234 13.0786 62.1032Z" fill="white"/>
<path d="M2.99496 58.6419C3.14623 58.4479 3.24759 58.2189 3.28994 57.9754C3.33228 57.7319 3.31429 57.4815 3.23757 57.2468C3.19786 57.1266 3.38663 57.0804 3.42607 57.1998C3.50964 57.4595 3.52918 57.736 3.48298 58.0052C3.43679 58.2743 3.32626 58.5279 3.16106 58.7437C3.14717 58.7654 3.12566 58.7809 3.1009 58.787C3.07614 58.7932 3.04999 58.7896 3.02776 58.7769C3.00584 58.7634 2.99009 58.7415 2.98395 58.7162C2.97781 58.691 2.98176 58.6642 2.99496 58.6419V58.6419Z" fill="white"/>
<path d="M10.7009 44.8071C10.7278 44.8815 10.7547 44.9558 10.7831 45.0307C11.1498 46.0285 11.5959 46.9945 12.117 47.9191C12.1562 47.9913 12.1969 48.0638 12.2381 48.1346C13.5169 50.3487 15.1903 52.3029 17.1731 53.898C17.9626 54.5319 18.7987 55.1041 19.6739 55.6095C20.8827 56.3075 22.2481 56.9667 23.1327 57.9982C23.2262 58.1048 23.3131 58.2171 23.3929 58.3346L21.7895 65.4283C21.7779 65.4426 21.7678 65.4573 21.7562 65.4716L21.705 65.7578C21.658 65.735 21.6098 65.7102 21.5629 65.6873C21.5356 65.6742 21.5087 65.6595 21.4814 65.6463C21.4633 65.637 21.4453 65.6277 21.4284 65.6204C21.4224 65.6173 21.4164 65.6142 21.412 65.6115C21.3951 65.6042 21.3803 65.5956 21.365 65.5886C21.0952 65.451 20.826 65.3113 20.5571 65.1694C20.5556 65.1691 20.5555 65.1691 20.5543 65.1671C18.4959 64.1059 16.5689 62.8009 14.8138 61.2796C14.7621 61.2335 14.7087 61.1871 14.6576 61.1377C13.8856 60.4427 13.171 59.6849 12.5208 58.8719C12.1662 58.4255 11.8341 57.9613 11.5258 57.4809C10.7316 56.2381 10.1352 54.8765 9.7585 53.4459C9.008 50.594 9.1659 47.5306 10.5902 44.9994C10.6267 44.9347 10.6628 44.8715 10.7009 44.8071Z" fill="#F0F0F0"/>
<path d="M10.7861 44.8438C10.68 48.5369 11.7249 52.17 13.7723 55.2271C14.2015 55.8931 14.7316 56.4864 15.3432 56.9852C15.9544 57.4515 16.6777 57.7435 17.4379 57.8307C18.1451 57.9265 18.8795 57.9415 19.5514 58.2098C19.8933 58.3523 20.2016 58.5665 20.4562 58.8382C20.7107 59.11 20.9057 59.4332 21.0283 59.7867C21.3564 60.6594 21.3556 61.5995 21.3232 62.5188C21.2873 63.5396 21.234 64.5993 21.6522 65.5552C21.7029 65.6711 21.5226 65.744 21.472 65.6283C20.7443 63.9651 21.3944 62.1135 21.0052 60.3884C20.8236 59.5835 20.4016 58.8292 19.6419 58.4638C18.9775 58.1444 18.2203 58.1283 17.5034 58.0376C16.7606 57.9635 16.0469 57.7062 15.4248 57.2882C14.7902 56.8226 14.2384 56.251 13.793 55.5978C12.7671 54.1434 11.9733 52.5347 11.4406 50.8304C10.822 48.8888 10.5357 46.8542 10.5941 44.8147C10.5977 44.6885 10.7897 44.7184 10.7861 44.8438L10.7861 44.8438Z" fill="white"/>
<path d="M13.0558 54.2819C12.5031 54.5604 11.8706 54.6307 11.2715 54.4803C10.6723 54.3298 10.1454 53.9684 9.78486 53.4606C9.71226 53.3577 9.86679 53.2385 9.93949 53.3416C10.2743 53.8151 10.7652 54.1517 11.3234 54.2906C11.8817 54.4295 12.4705 54.3617 12.9837 54.0993C13.0953 54.0424 13.1668 54.2253 13.0558 54.2819Z" fill="white"/>
<path d="M17.073 57.83C17.4855 56.6214 17.4333 55.2997 16.9269 54.1284C16.8766 54.0124 17.0569 53.9395 17.1071 54.0554C17.6318 55.2752 17.6834 56.6508 17.2515 57.9074C17.2102 58.0272 17.032 57.9491 17.073 57.83Z" fill="white"/>
<path d="M11.0782 48.9138C11.3143 48.8512 11.5312 48.7302 11.7097 48.5616C11.8882 48.393 12.0226 48.1822 12.1007 47.948C12.1405 47.8278 12.3187 47.906 12.2792 48.0255C12.1916 48.2838 12.0429 48.5165 11.8462 48.7032C11.6494 48.8899 11.4105 49.0249 11.1503 49.0965C11.1264 49.1053 11.1 49.1045 11.0766 49.0944C11.0531 49.0842 11.0344 49.0653 11.0242 49.0417C11.0147 49.0174 11.0151 48.9904 11.0252 48.9665C11.0354 48.9425 11.0544 48.9236 11.0782 48.9138H11.0782Z" fill="white"/>
<path d="M133.726 65.062C137.649 63.032 140.772 58.9618 140.686 54.499C137.019 57.6214 132.38 59.3286 127.59 59.3185C125.743 59.3078 123.689 59.101 122.254 60.279C121.36 61.012 120.892 62.1732 120.753 63.3295C120.615 64.4859 120.77 65.6553 120.926 66.8095L120.829 67.0834C125.224 67.3889 129.804 67.092 133.726 65.062Z" fill="#F0F0F0"/>
<path d="M140.594 54.4882C138.867 57.7415 136.171 60.3605 132.891 61.973C132.191 62.3328 131.439 62.5786 130.664 62.7012C129.904 62.7959 129.134 62.6829 128.432 62.3737C127.772 62.0988 127.129 61.7402 126.414 61.6327C126.048 61.5831 125.675 61.6126 125.321 61.7193C124.966 61.8259 124.638 62.0073 124.358 62.2515C123.643 62.8415 123.181 63.6565 122.756 64.4694C122.284 65.3719 121.808 66.317 120.974 66.9336C120.874 67.0083 120.994 67.1627 121.095 67.0881C122.545 66.0153 122.894 64.0821 124.081 62.7845C124.635 62.179 125.372 61.739 126.211 61.807C126.944 61.8664 127.608 62.2357 128.273 62.5199C128.953 62.8316 129.699 62.9698 130.444 62.9224C131.223 62.8402 131.983 62.6242 132.69 62.2837C134.296 61.5428 135.776 60.5507 137.077 59.3437C138.57 57.9745 139.821 56.3567 140.775 54.5601C140.834 54.4489 140.653 54.3777 140.594 54.4882Z" fill="white"/>
<path d="M133.977 61.5166C134.319 62.0376 134.832 62.4186 135.425 62.5914C136.019 62.7643 136.653 62.7178 137.216 62.4604C137.33 62.4079 137.254 62.2264 137.141 62.279C136.617 62.5197 136.026 62.563 135.474 62.4008C134.922 62.2387 134.445 61.8819 134.13 61.3949C134.061 61.2891 133.909 61.4115 133.977 61.5166Z" fill="white"/>
<path d="M128.749 62.5578C128.987 61.302 129.683 60.1833 130.699 59.4248C130.8 59.3497 130.68 59.1953 130.579 59.2703C129.523 60.0616 128.801 61.2273 128.556 62.5346C128.532 62.6593 128.725 62.6818 128.749 62.5578H128.749Z" fill="white"/>
<path d="M138.336 57.8665C138.162 57.6928 138.034 57.4782 137.962 57.2418C137.891 57.0054 137.878 56.7547 137.926 56.5122C137.951 56.388 137.758 56.3656 137.733 56.4891C137.682 56.7572 137.696 57.0341 137.774 57.2954C137.853 57.5567 137.993 57.7946 138.183 57.9882C138.2 58.008 138.223 58.0207 138.248 58.0238C138.274 58.0268 138.299 58.02 138.32 58.0046C138.34 57.9884 138.353 57.9648 138.356 57.9389C138.359 57.9131 138.352 57.887 138.336 57.8665H138.336Z" fill="white"/>
<path d="M129.01 45.0967C128.993 45.1738 128.975 45.251 128.956 45.3288C128.713 46.3647 128.387 47.379 127.982 48.3615C127.952 48.438 127.921 48.515 127.888 48.5904C126.888 50.947 125.464 53.0949 123.69 54.9248C122.983 55.6523 122.223 56.3243 121.416 56.9349C120.301 57.7781 119.026 58.6025 118.273 59.7363C118.193 59.8537 118.12 59.976 118.055 60.1025L120.507 66.9428C120.52 66.9555 120.532 66.9688 120.545 66.9816L120.631 67.2593C120.675 67.2307 120.72 67.2001 120.763 67.1716C120.789 67.1551 120.814 67.1372 120.839 67.1207C120.856 67.1093 120.873 67.0977 120.889 67.0884C120.894 67.0846 120.9 67.0807 120.904 67.0775C120.92 67.0682 120.933 67.0578 120.948 67.049C121.199 66.8788 121.449 66.7066 121.699 66.5323C121.7 66.5318 121.7 66.5318 121.701 66.5297C123.615 65.2201 125.369 63.685 126.927 61.9565C126.972 61.9043 127.02 61.8516 127.064 61.7963C127.746 61.0104 128.364 60.1693 128.91 59.2814C129.208 58.7943 129.481 58.2922 129.729 57.7771C130.366 56.4448 130.793 55.0192 130.993 53.5526C131.392 50.6288 130.864 47.6082 129.144 45.2737C129.1 45.214 129.056 45.1558 129.01 45.0967Z" fill="#F0F0F0"/>
<path d="M128.93 45.1436C129.483 48.7955 128.887 52.5312 127.226 55.8201C126.881 56.5345 126.427 57.1894 125.88 57.7605C125.33 58.2995 124.648 58.6793 123.904 58.8606C123.214 59.0437 122.487 59.1501 121.853 59.5001C121.531 59.6841 121.251 59.935 121.031 60.2364C120.811 60.5379 120.657 60.8829 120.578 61.249C120.358 62.1559 120.473 63.0888 120.617 63.9972C120.776 65.0057 120.958 66.0507 120.659 67.0515C120.622 67.1728 120.81 67.2227 120.846 67.1016C121.367 65.3603 120.497 63.6038 120.674 61.8433C120.757 61.0219 121.084 60.2206 121.794 59.7635C122.414 59.3637 123.164 59.2534 123.864 59.0741C124.592 58.908 125.269 58.5638 125.836 58.0714C126.409 57.5303 126.888 56.8943 127.25 56.1906C128.092 54.6195 128.685 52.924 129.007 51.1663C129.385 49.1624 129.423 47.1076 129.117 45.0908C129.098 44.966 128.911 45.0196 128.93 45.1436Z" fill="white"/>
<path d="M127.822 54.7931C128.405 55.0006 129.041 54.9916 129.617 54.7676C130.194 54.5437 130.673 54.1194 130.969 53.5706C131.029 53.4593 130.861 53.3603 130.801 53.4717C130.526 53.9833 130.08 54.3785 129.543 54.5859C129.006 54.7933 128.413 54.7993 127.872 54.6028C127.754 54.5603 127.705 54.7508 127.822 54.7931Z" fill="white"/>
<path d="M124.266 58.8144C123.71 57.6664 123.602 56.3482 123.962 55.1227C123.998 55.0013 123.81 54.9514 123.774 55.0726C123.402 56.3486 123.517 57.7201 124.098 58.9135C124.154 59.0272 124.321 58.9275 124.266 58.8144Z" fill="white"/>
<path d="M129.134 49.2191C128.892 49.1864 128.662 49.0934 128.465 48.9483C128.267 48.8032 128.108 48.6107 128.002 48.388C127.948 48.2736 127.781 48.3735 127.834 48.4871C127.953 48.7326 128.128 48.945 128.346 49.1058C128.564 49.2665 128.818 49.3708 129.085 49.4094C129.109 49.4152 129.136 49.4111 129.158 49.3981C129.18 49.3851 129.196 49.3641 129.203 49.3393C129.21 49.3141 129.206 49.2873 129.193 49.2648C129.18 49.2423 129.159 49.2259 129.134 49.2191V49.2191Z" fill="white"/>
<path d="M122.655 2.92188H95.0179V4.72363C95.0175 4.81589 95.0488 4.90542 95.1064 4.97685C95.0506 6.38515 95.0179 8.183 95.0179 10.1367V58.3069C95.0179 62.822 95.1967 66.4956 95.4158 66.4956H122.258C122.477 66.4956 122.655 62.822 122.655 58.3069V10.1367C122.655 8.183 122.623 6.38516 122.567 4.97685C122.625 4.90541 122.656 4.81588 122.655 4.72363L122.655 2.92188Z" fill="white"/>
<path d="M122.258 66.6904H95.4158C95.2066 66.6904 95.0684 66.6904 94.9427 64.104C94.8672 62.5519 94.8257 60.493 94.8257 58.3069V10.1367C94.8257 8.24849 94.8572 6.41326 94.9143 4.96902C94.9501 4.10191 94.991 3.40732 95.036 2.90429C95.1244 1.91952 95.2083 1.75317 95.4158 1.75317H122.258C122.465 1.75317 122.549 1.91952 122.637 2.90429C122.682 3.40922 122.723 4.10381 122.759 4.96864L122.759 4.96902C122.816 6.41174 122.848 8.24697 122.848 10.1367V58.3069C122.848 60.4931 122.806 62.552 122.731 64.104C122.605 66.6904 122.467 66.6904 122.258 66.6904ZM95.525 66.3008H122.148C122.288 65.7685 122.463 62.8784 122.463 58.3069V10.1367C122.463 8.25211 122.432 6.42258 122.375 4.985H122.375C122.34 4.12635 122.299 3.43814 122.255 2.93948C122.237 2.67163 122.201 2.40537 122.147 2.14274H95.5268C95.4721 2.40537 95.4361 2.67163 95.4189 2.93948C95.3744 3.43623 95.3339 4.12445 95.2984 4.985C95.2415 6.42381 95.2101 8.25353 95.2101 10.1367V58.3069C95.2101 62.8783 95.3859 65.7685 95.525 66.3008Z" fill="#E4E4E4"/>
<path d="M122.258 1.94775H95.4158C95.3103 1.94796 95.2092 1.9905 95.1347 2.06607C95.0601 2.14164 95.0181 2.24408 95.0179 2.35096V4.72343C95.0174 4.81569 95.0487 4.90522 95.1064 4.97666C95.1437 5.02336 95.1909 5.06105 95.2444 5.08699C95.2979 5.11294 95.3565 5.12648 95.4158 5.12664H122.258C122.317 5.12647 122.375 5.11292 122.429 5.08698C122.483 5.06103 122.53 5.02335 122.567 4.97666C122.625 4.90521 122.656 4.81568 122.655 4.72343V2.35096C122.655 2.24409 122.613 2.14165 122.539 2.06608C122.464 1.99051 122.363 1.94796 122.258 1.94775Z" fill="#CACACA"/>
<path d="M97.3282 3.99406C97.6402 3.99406 97.8932 3.7377 97.8932 3.42147C97.8932 3.10524 97.6402 2.84888 97.3282 2.84888C97.0161 2.84888 96.7632 3.10524 96.7632 3.42147C96.7632 3.7377 97.0161 3.99406 97.3282 3.99406Z" fill="white"/>
<path d="M99.4728 3.99406C99.7848 3.99406 100.038 3.7377 100.038 3.42147C100.038 3.10524 99.7848 2.84888 99.4728 2.84888C99.1607 2.84888 98.9078 3.10524 98.9078 3.42147C98.9078 3.7377 99.1607 3.99406 99.4728 3.99406Z" fill="white"/>
<path d="M101.618 3.99406C101.93 3.99406 102.183 3.7377 102.183 3.42147C102.183 3.10524 101.93 2.84888 101.618 2.84888C101.305 2.84888 101.053 3.10524 101.053 3.42147C101.053 3.7377 101.305 3.99406 101.618 3.99406Z" fill="white"/>
<path d="M120.157 2.65698H117.687C117.639 2.65731 117.592 2.67691 117.558 2.71155C117.524 2.74618 117.505 2.79306 117.504 2.84203C117.504 2.86991 117.51 2.89749 117.524 2.92189C117.538 2.95326 117.561 2.97978 117.59 2.9984C117.619 3.01701 117.653 3.02696 117.687 3.02707H120.157C120.191 3.02725 120.225 3.01745 120.254 2.99882C120.284 2.9802 120.307 2.95351 120.322 2.92189C120.334 2.89699 120.34 2.86964 120.339 2.84203C120.339 2.81772 120.335 2.79365 120.325 2.77119C120.316 2.74873 120.303 2.72833 120.286 2.71114C120.269 2.69396 120.249 2.68033 120.227 2.67103C120.204 2.66174 120.181 2.65697 120.157 2.65698Z" fill="white"/>
<path d="M120.157 3.35229H117.687C117.638 3.35229 117.592 3.37179 117.558 3.40649C117.523 3.4412 117.504 3.48826 117.504 3.53734C117.504 3.58642 117.523 3.63348 117.558 3.66819C117.592 3.70289 117.638 3.72238 117.687 3.72238H120.157C120.205 3.72238 120.252 3.70289 120.286 3.66819C120.32 3.63348 120.339 3.58642 120.339 3.53734C120.339 3.48826 120.32 3.4412 120.286 3.40649C120.252 3.37179 120.205 3.35229 120.157 3.35229Z" fill="white"/>
<path d="M120.157 4.04761H117.687C117.638 4.04761 117.592 4.06711 117.558 4.10181C117.523 4.13651 117.504 4.18357 117.504 4.23265C117.504 4.28173 117.523 4.3288 117.558 4.3635C117.592 4.3982 117.638 4.4177 117.687 4.4177H120.157C120.205 4.4177 120.252 4.3982 120.286 4.3635C120.32 4.3288 120.339 4.28173 120.339 4.23265C120.339 4.18357 120.32 4.13651 120.286 4.10181C120.252 4.06711 120.205 4.04761 120.157 4.04761Z" fill="white"/>
<path d="M111.507 10.3274H106.425C106.171 10.3275 105.926 10.4301 105.746 10.6128C105.566 10.7954 105.464 11.043 105.464 11.3013V15.7619C105.465 16.0201 105.566 16.2675 105.746 16.4501C105.926 16.6326 106.171 16.7354 106.425 16.7358H111.507C111.762 16.735 112.006 16.6322 112.186 16.4497C112.366 16.2672 112.468 16.02 112.468 15.7619V11.3013C112.468 11.0431 112.367 10.7957 112.186 10.6131C112.006 10.4306 111.762 10.3278 111.507 10.3274Z" fill="#007DCB"/>
<path d="M117.821 19.6499H100.109C99.9938 19.6499 99.8828 19.6965 99.801 19.7794C99.7191 19.8623 99.6732 19.9748 99.6732 20.0921C99.6732 20.2093 99.7191 20.3218 99.801 20.4047C99.8828 20.4876 99.9938 20.5342 100.109 20.5342H117.821C117.937 20.5342 118.048 20.4876 118.13 20.4047C118.212 20.3218 118.258 20.2093 118.258 20.0921C118.258 19.9748 118.212 19.8623 118.13 19.7794C118.048 19.6965 117.937 19.6499 117.821 19.6499Z" fill="#E4E4E4"/>
<path d="M106.837 21.7222H100.109C99.9938 21.7222 99.8828 21.7688 99.801 21.8517C99.7191 21.9346 99.6732 22.0471 99.6732 22.1643C99.6732 22.2816 99.7191 22.3941 99.801 22.477C99.8828 22.5599 99.9938 22.6065 100.109 22.6065H106.837C106.952 22.6065 107.063 22.5599 107.145 22.477C107.227 22.3941 107.273 22.2816 107.273 22.1643C107.273 22.0471 107.227 21.9346 107.145 21.8517C107.063 21.7688 106.952 21.7222 106.837 21.7222Z" fill="#E4E4E4"/>
<path d="M111.507 29.6111H106.425C106.171 29.6112 105.926 29.7138 105.746 29.8965C105.566 30.0791 105.464 30.3267 105.464 30.585V35.0456C105.465 35.3037 105.566 35.5512 105.746 35.7338C105.926 35.9163 106.171 36.0191 106.425 36.0195H111.507C111.762 36.0187 112.006 35.9159 112.186 35.7334C112.366 35.5509 112.468 35.3036 112.468 35.0456V30.585C112.468 30.3268 112.367 30.0794 112.186 29.8968C112.006 29.7143 111.762 29.6115 111.507 29.6111Z" fill="#007DCB"/>
<path d="M117.821 38.9336H100.109C99.9938 38.9336 99.8828 38.9802 99.801 39.0631C99.7191 39.146 99.6732 39.2585 99.6732 39.3758C99.6732 39.493 99.7191 39.6055 99.801 39.6884C99.8828 39.7713 99.9938 39.8179 100.109 39.8179H117.821C117.937 39.8179 118.048 39.7713 118.13 39.6884C118.212 39.6055 118.258 39.493 118.258 39.3758C118.258 39.2585 118.212 39.146 118.13 39.0631C118.048 38.9802 117.937 38.9336 117.821 38.9336Z" fill="#E4E4E4"/>
<path d="M106.837 41.0059H100.109C99.9938 41.0059 99.8828 41.0524 99.801 41.1354C99.7191 41.2183 99.6732 41.3308 99.6732 41.448C99.6732 41.5653 99.7191 41.6778 99.801 41.7607C99.8828 41.8436 99.9938 41.8902 100.109 41.8902H106.837C106.952 41.8902 107.063 41.8436 107.145 41.7607C107.227 41.6778 107.273 41.5653 107.273 41.448C107.273 41.3308 107.227 41.2183 107.145 41.1354C107.063 41.0524 106.952 41.0059 106.837 41.0059Z" fill="#E4E4E4"/>
<path d="M111.507 48.8948H106.425C106.171 48.8949 105.926 48.9975 105.746 49.1801C105.566 49.3628 105.464 49.6104 105.464 49.8687V54.3293C105.465 54.5874 105.566 54.8349 105.746 55.0175C105.926 55.2 106.171 55.3028 106.425 55.3032H111.507C111.762 55.3024 112.006 55.1996 112.186 55.0171C112.366 54.8346 112.468 54.5873 112.468 54.3293V49.8687C112.468 49.6105 112.367 49.3631 112.186 49.1805C112.006 48.9979 111.762 48.8952 111.507 48.8948Z" fill="#007DCB"/>
<path d="M117.821 58.217H100.109C99.9938 58.217 99.8828 58.2636 99.801 58.3465C99.7191 58.4295 99.6732 58.5419 99.6732 58.6592C99.6732 58.7765 99.7191 58.8889 99.801 58.9719C99.8828 59.0548 99.9938 59.1014 100.109 59.1014H117.821C117.937 59.1014 118.048 59.0548 118.13 58.9719C118.212 58.8889 118.258 58.7765 118.258 58.6592C118.258 58.5419 118.212 58.4295 118.13 58.3465C118.048 58.2636 117.937 58.217 117.821 58.217Z" fill="#E4E4E4"/>
<path d="M106.837 60.2896H100.109C99.9938 60.2896 99.8828 60.3361 99.801 60.4191C99.7191 60.502 99.6732 60.6144 99.6732 60.7317C99.6732 60.849 99.7191 60.9614 99.801 61.0444C99.8828 61.1273 99.9938 61.1739 100.109 61.1739H106.837C106.952 61.1739 107.063 61.1273 107.145 61.0444C107.227 60.9614 107.273 60.849 107.273 60.7317C107.273 60.6144 107.227 60.502 107.145 60.4191C107.063 60.3361 106.952 60.2896 106.837 60.2896Z" fill="#E4E4E4"/>
<path d="M87.4814 0.598029C87.4812 0.491161 87.4392 0.388726 87.3647 0.313155C87.2901 0.237585 87.189 0.195034 87.0836 0.194824H16.0339C15.9285 0.195031 15.8274 0.237575 15.7528 0.313144C15.6782 0.388712 15.6362 0.491151 15.636 0.598029V2.9705C15.6357 3.06928 15.672 3.16456 15.7379 3.23736C15.6745 4.84823 15.636 6.97138 15.636 9.2971V62.8453C15.636 67.8668 15.8148 71.9495 16.0339 71.9495H87.0836C87.3027 71.9495 87.4814 67.8668 87.4814 62.8453V9.2971C87.4814 6.97138 87.443 4.84823 87.3796 3.23736C87.4454 3.16454 87.4818 3.06926 87.4814 2.9705V0.598029Z" fill="white"/>
<path d="M87.0836 72.1442H16.0339C15.8167 72.1442 15.6856 72.1442 15.5607 69.2891C15.4853 67.5642 15.4438 65.2758 15.4438 62.8452V9.29706C15.4438 7.05561 15.48 4.90081 15.5459 3.22954C15.6722 2.60065e-06 15.8161 0 16.0339 0H87.0836C87.3013 0 87.4453 0.000573258 87.5716 3.22954C87.6374 4.89929 87.6736 7.05409 87.6736 9.29706V62.8452C87.6736 65.2759 87.6321 67.5643 87.5567 69.2891C87.4318 72.1442 87.3007 72.1442 87.0836 72.1442ZM16.1461 71.7547H86.9714C87.1286 71.144 87.2892 67.7148 87.2892 62.8452V9.29706C87.2892 7.05913 87.2531 4.90975 87.1875 3.24514V3.24505C87.1075 1.19914 87.014 0.576554 86.9693 0.389569H16.1482C16.1035 0.576562 16.01 1.19914 15.93 3.24505C15.8643 4.91137 15.8282 7.06065 15.8282 9.29706V62.8452C15.8282 67.7148 15.9888 71.1439 16.1461 71.7547Z" fill="#E4E4E4"/>
<path d="M87.0835 0.194824H16.0339C15.9285 0.195031 15.8274 0.237575 15.7528 0.313144C15.6782 0.388712 15.6362 0.491151 15.636 0.598029V2.9705C15.6357 3.06928 15.672 3.16456 15.7379 3.23736C15.7749 3.28011 15.8204 3.31438 15.8714 3.3379C15.9224 3.36141 15.9779 3.37362 16.0339 3.37371H87.0835C87.1396 3.37362 87.195 3.36141 87.2461 3.3379C87.2971 3.31438 87.3426 3.28011 87.3795 3.23736C87.4454 3.16454 87.4818 3.06926 87.4814 2.9705V0.598029C87.4812 0.491164 87.4392 0.388732 87.3646 0.313161C87.2901 0.237591 87.189 0.195038 87.0835 0.194824Z" fill="#CACACA"/>
<path d="M17.9463 2.24089C18.2584 2.24089 18.5113 1.98453 18.5113 1.6683C18.5113 1.35206 18.2584 1.0957 17.9463 1.0957C17.6343 1.0957 17.3813 1.35206 17.3813 1.6683C17.3813 1.98453 17.6343 2.24089 17.9463 2.24089Z" fill="white"/>
<path d="M20.0909 2.24089C20.403 2.24089 20.656 1.98453 20.656 1.6683C20.656 1.35206 20.403 1.0957 20.0909 1.0957C19.7789 1.0957 19.5259 1.35206 19.5259 1.6683C19.5259 1.98453 19.7789 2.24089 20.0909 2.24089Z" fill="white"/>
<path d="M22.2357 2.24089C22.5477 2.24089 22.8007 1.98453 22.8007 1.6683C22.8007 1.35206 22.5477 1.0957 22.2357 1.0957C21.9236 1.0957 21.6706 1.35206 21.6706 1.6683C21.6706 1.98453 21.9236 2.24089 22.2357 2.24089Z" fill="white"/>
<path d="M84.9827 0.903809H82.5128C82.4644 0.903809 82.4179 0.923303 82.3837 0.958006C82.3494 0.992709 82.3302 1.03978 82.3302 1.08885C82.3302 1.13793 82.3494 1.185 82.3837 1.2197C82.4179 1.2544 82.4644 1.2739 82.5128 1.2739H84.9827C85.0311 1.2739 85.0776 1.2544 85.1118 1.2197C85.146 1.185 85.1653 1.13793 85.1653 1.08885C85.1653 1.03978 85.146 0.992709 85.1118 0.958006C85.0776 0.923303 85.0311 0.903809 84.9827 0.903809Z" fill="white"/>
<path d="M84.9827 1.59912H82.5128C82.4644 1.59912 82.4179 1.61862 82.3837 1.65332C82.3494 1.68802 82.3302 1.73509 82.3302 1.78417C82.3302 1.83324 82.3494 1.88031 82.3837 1.91501C82.4179 1.94972 82.4644 1.96921 82.5128 1.96921H84.9827C85.0311 1.96921 85.0776 1.94972 85.1118 1.91501C85.146 1.88031 85.1653 1.83324 85.1653 1.78417C85.1653 1.73509 85.146 1.68802 85.1118 1.65332C85.0776 1.61862 85.0311 1.59912 84.9827 1.59912Z" fill="white"/>
<path d="M84.9827 2.29443H82.5128C82.4644 2.29443 82.4179 2.31393 82.3837 2.34863C82.3494 2.38334 82.3302 2.4304 82.3302 2.47948C82.3302 2.52856 82.3494 2.57562 82.3837 2.61033C82.4179 2.64503 82.4644 2.66453 82.5128 2.66453H84.9827C85.0311 2.66453 85.0776 2.64503 85.1118 2.61033C85.146 2.57562 85.1653 2.52856 85.1653 2.47948C85.1653 2.4304 85.146 2.38334 85.1118 2.34863C85.0776 2.31393 85.0311 2.29443 84.9827 2.29443Z" fill="white"/>
<path d="M38.9989 12.0806H30.684C30.2671 12.0811 29.8675 12.2491 29.5728 12.5478C29.278 12.8465 29.1123 13.2515 29.1118 13.6739V20.9725C29.1123 21.3949 29.278 21.7999 29.5728 22.0986C29.8675 22.3973 30.2671 22.5653 30.684 22.5658H38.9989C39.4157 22.5653 39.8154 22.3973 40.1101 22.0986C40.4048 21.7999 40.5706 21.3949 40.5711 20.9725V13.6739C40.5706 13.2515 40.4048 12.8465 40.1101 12.5478C39.8154 12.2491 39.4157 12.0811 38.9989 12.0806Z" fill="#007DCB"/>
<path d="M73.2945 14.9028H44.3134C44.1241 14.9028 43.9424 14.9791 43.8085 15.1148C43.6746 15.2505 43.5994 15.4345 43.5994 15.6265C43.5994 15.8184 43.6746 16.0024 43.8085 16.1381C43.9424 16.2738 44.1241 16.3501 44.3134 16.3501H73.2945C73.4839 16.3501 73.6655 16.2738 73.7994 16.1381C73.9333 16.0024 74.0086 15.8184 74.0086 15.6265C74.0086 15.4345 73.9333 15.2505 73.7994 15.1148C73.6655 14.9791 73.4839 14.9028 73.2945 14.9028Z" fill="#E4E4E4"/>
<path d="M55.3212 18.2942H44.3135C44.1241 18.2942 43.9425 18.3704 43.8085 18.5061C43.6746 18.6418 43.5994 18.8259 43.5994 19.0178C43.5994 19.2097 43.6746 19.3938 43.8085 19.5295C43.9425 19.6652 44.1241 19.7414 44.3135 19.7414H55.3212C55.5106 19.7414 55.6922 19.6652 55.8261 19.5295C55.96 19.3938 56.0353 19.2097 56.0353 19.0178C56.0353 18.8259 55.96 18.6418 55.8261 18.5061C55.6922 18.3704 55.5106 18.2942 55.3212 18.2942Z" fill="#E4E4E4"/>
<path d="M38.9989 31.5588H30.684C30.2671 31.5594 29.8675 31.7274 29.5728 32.0261C29.278 32.3248 29.1123 32.7298 29.1118 33.1522V40.4508C29.1123 40.8732 29.278 41.2781 29.5728 41.5768C29.8675 41.8755 30.2671 42.0436 30.684 42.0441H38.9989C39.4157 42.0436 39.8154 41.8755 40.1101 41.5768C40.4048 41.2781 40.5706 40.8732 40.5711 40.4508V33.1522C40.5706 32.7298 40.4048 32.3248 40.1101 32.0261C39.8154 31.7274 39.4157 31.5594 38.9989 31.5588Z" fill="#007DCB"/>
<path d="M73.2945 34.3813H44.3134C44.1241 34.3813 43.9424 34.4576 43.8085 34.5933C43.6746 34.729 43.5994 34.9131 43.5994 35.105C43.5994 35.2969 43.6746 35.4809 43.8085 35.6166C43.9424 35.7524 44.1241 35.8286 44.3134 35.8286H73.2945C73.4839 35.8286 73.6655 35.7524 73.7994 35.6166C73.9333 35.4809 74.0086 35.2969 74.0086 35.105C74.0086 34.9131 73.9333 34.729 73.7994 34.5933C73.6655 34.4576 73.4839 34.3813 73.2945 34.3813Z" fill="#E4E4E4"/>
<path d="M55.3212 37.7725H44.3135C44.1241 37.7725 43.9425 37.8487 43.8085 37.9844C43.6746 38.1201 43.5994 38.3042 43.5994 38.4961C43.5994 38.688 43.6746 38.8721 43.8085 39.0078C43.9425 39.1435 44.1241 39.2197 44.3135 39.2197H55.3212C55.5106 39.2197 55.6922 39.1435 55.8261 39.0078C55.96 38.8721 56.0353 38.688 56.0353 38.4961C56.0353 38.3042 55.96 38.1201 55.8261 37.9844C55.6922 37.8487 55.5106 37.7725 55.3212 37.7725Z" fill="#E4E4E4"/>
<path d="M38.9989 51.0374H30.684C30.2671 51.0379 29.8675 51.2059 29.5728 51.5046C29.278 51.8033 29.1123 52.2083 29.1118 52.6307V59.9293C29.1123 60.3517 29.278 60.7567 29.5728 61.0553C29.8675 61.354 30.2671 61.5221 30.684 61.5226H38.9989C39.4157 61.5221 39.8154 61.354 40.1101 61.0553C40.4048 60.7567 40.5706 60.3517 40.5711 59.9293V52.6307C40.5706 52.2083 40.4048 51.8033 40.1101 51.5046C39.8154 51.2059 39.4157 51.0379 38.9989 51.0374Z" fill="#007DCB"/>
<path d="M73.2945 53.8599H44.3134C44.1241 53.8599 43.9424 53.9361 43.8085 54.0718C43.6746 54.2075 43.5994 54.3916 43.5994 54.5835C43.5994 54.7754 43.6746 54.9595 43.8085 55.0952C43.9424 55.2309 44.1241 55.3071 44.3134 55.3071H73.2945C73.4839 55.3071 73.6655 55.2309 73.7994 55.0952C73.9333 54.9595 74.0086 54.7754 74.0086 54.5835C74.0086 54.3916 73.9333 54.2075 73.7994 54.0718C73.6655 53.9361 73.4839 53.8599 73.2945 53.8599Z" fill="#E4E4E4"/>
<path d="M55.3212 57.251H44.3135C44.1241 57.251 43.9425 57.3272 43.8085 57.4629C43.6746 57.5986 43.5994 57.7827 43.5994 57.9746C43.5994 58.1665 43.6746 58.3506 43.8085 58.4863C43.9425 58.622 44.1241 58.6982 44.3135 58.6982H55.3212C55.5106 58.6982 55.6922 58.622 55.8261 58.4863C55.96 58.3506 56.0353 58.1665 56.0353 57.9746C56.0353 57.7827 55.96 57.5986 55.8261 57.4629C55.6922 57.3272 55.5106 57.251 55.3212 57.251Z" fill="#E4E4E4"/>
<path d="M99.7699 84.8051H52.1698C51.9503 84.8051 51.7718 81.3867 51.7718 77.1844V32.3579C51.7718 28.1557 51.9503 24.7373 52.1698 24.7373H99.7699C99.9893 24.7373 100.168 28.1557 100.168 32.3579V77.1844C100.168 81.3867 99.9893 84.8051 99.7699 84.8051Z" fill="white"/>
<path d="M99.7698 85.0001H52.1698C51.9684 85.0001 51.8229 85.0001 51.6966 82.5812C51.6211 81.1368 51.5796 79.2204 51.5796 77.1846V32.3582C51.5796 30.3225 51.6211 28.406 51.6966 26.9617C51.8229 24.5427 51.9684 24.5427 52.1698 24.5427H99.7698C99.9712 24.5427 100.117 24.5427 100.243 26.9617C100.318 28.406 100.36 30.3225 100.36 32.3582V77.1846C100.36 79.2204 100.318 81.1368 100.243 82.5812C100.117 85.0001 99.9712 85.0001 99.7698 85.0001ZM52.2761 84.6105H99.6634C99.8014 84.1059 99.9756 81.4172 99.9756 77.1846V32.3582C99.9756 28.1256 99.8014 25.4369 99.6634 24.9323H52.2761C52.1382 25.4369 51.964 28.1256 51.964 32.3582V77.1846C51.964 81.4172 52.1382 84.1059 52.2761 84.6105Z" fill="#E4E4E4"/>
<path d="M99.7699 27.9163H52.1698C52.0643 27.9161 51.9631 27.8736 51.8885 27.798C51.8139 27.7224 51.7719 27.6199 51.7718 27.513V25.1406C51.7719 25.0337 51.8139 24.9312 51.8885 24.8556C51.9631 24.78 52.0643 24.7374 52.1698 24.7373H99.7699C99.8754 24.7374 99.9765 24.78 100.051 24.8556C100.126 24.9312 100.168 25.0337 100.168 25.1406V27.513C100.168 27.6199 100.126 27.7224 100.051 27.798C99.9765 27.8736 99.8754 27.9161 99.7699 27.9163Z" fill="#CACACA"/>
<path d="M54.0814 26.7839C54.3935 26.7839 54.6464 26.5275 54.6464 26.2113C54.6464 25.895 54.3935 25.6387 54.0814 25.6387C53.7694 25.6387 53.5164 25.895 53.5164 26.2113C53.5164 26.5275 53.7694 26.7839 54.0814 26.7839Z" fill="white"/>
<path d="M56.226 26.7839C56.5381 26.7839 56.791 26.5275 56.791 26.2113C56.791 25.895 56.5381 25.6387 56.226 25.6387C55.914 25.6387 55.661 25.895 55.661 26.2113C55.661 26.5275 55.914 26.7839 56.226 26.7839Z" fill="white"/>
<path d="M58.3707 26.7839C58.6828 26.7839 58.9358 26.5275 58.9358 26.2113C58.9358 25.895 58.6828 25.6387 58.3707 25.6387C58.0587 25.6387 57.8057 25.895 57.8057 26.2113C57.8057 26.5275 58.0587 26.7839 58.3707 26.7839Z" fill="white"/>
<path d="M97.6685 25.8171H95.1989C95.1504 25.8171 95.1039 25.7975 95.0696 25.7628C95.0353 25.728 95.016 25.6808 95.016 25.6317C95.016 25.5825 95.0353 25.5354 95.0696 25.5006C95.1039 25.4658 95.1504 25.4463 95.1989 25.4463H97.6685C97.7169 25.4464 97.7633 25.466 97.7975 25.5008C97.8317 25.5355 97.8509 25.5826 97.8509 25.6317C97.8509 25.6807 97.8317 25.7278 97.7975 25.7626C97.7633 25.7973 97.7169 25.8169 97.6685 25.8171Z" fill="white"/>
<path d="M97.6685 26.5124H95.1989C95.1504 26.5124 95.1039 26.4928 95.0696 26.4581C95.0353 26.4233 95.016 26.3762 95.016 26.327C95.016 26.2778 95.0353 26.2307 95.0696 26.1959C95.1039 26.1611 95.1504 26.1416 95.1989 26.1416H97.6685C97.7171 26.1416 97.7636 26.1611 97.7979 26.1959C97.8322 26.2307 97.8515 26.2778 97.8515 26.327C97.8515 26.3762 97.8322 26.4233 97.7979 26.4581C97.7636 26.4928 97.7171 26.5124 97.6685 26.5124Z" fill="white"/>
<path d="M97.6685 27.2077H95.1989C95.1504 27.2077 95.1039 27.1882 95.0696 27.1534C95.0353 27.1186 95.016 27.0715 95.016 27.0223C95.016 26.9731 95.0353 26.926 95.0696 26.8912C95.1039 26.8564 95.1504 26.8369 95.1989 26.8369H97.6685C97.7169 26.8371 97.7633 26.8567 97.7975 26.8914C97.8317 26.9262 97.8509 26.9732 97.8509 27.0223C97.8509 27.0714 97.8317 27.1184 97.7975 27.1532C97.7633 27.1879 97.7169 27.2075 97.6685 27.2077Z" fill="white"/>
<path d="M66.7968 42.6416H60.7243C60.4198 42.6412 60.1279 42.5185 59.9127 42.3003C59.6974 42.0821 59.5763 41.7863 59.5759 41.4778V36.1479C59.5763 35.8393 59.6974 35.5435 59.9127 35.3254C60.1279 35.1072 60.4198 34.9845 60.7243 34.9841H66.7968C67.1012 34.9845 67.3931 35.1072 67.6084 35.3254C67.8237 35.5435 67.9448 35.8393 67.9451 36.1479V41.4778C67.9448 41.7863 67.8237 42.0821 67.6084 42.3003C67.3931 42.5185 67.1012 42.6412 66.7968 42.6416Z" fill="#007DCB"/>
<path d="M91.8423 38.1028H70.6782C70.5399 38.1028 70.4073 38.0472 70.3096 37.9481C70.2118 37.849 70.1569 37.7146 70.1569 37.5745C70.1569 37.4344 70.2118 37.3 70.3096 37.2009C70.4073 37.1018 70.5399 37.0461 70.6782 37.0461H91.8423C91.9806 37.0461 92.1132 37.1018 92.211 37.2009C92.3087 37.3 92.3637 37.4344 92.3637 37.5745C92.3637 37.7146 92.3087 37.849 92.211 37.9481C92.1132 38.0472 91.9806 38.1028 91.8423 38.1028Z" fill="#E4E4E4"/>
<path d="M78.7167 40.5794H70.6782C70.5399 40.5794 70.4073 40.5237 70.3096 40.4246C70.2118 40.3256 70.1569 40.1912 70.1569 40.0511C70.1569 39.9109 70.2118 39.7765 70.3096 39.6775C70.4073 39.5784 70.5399 39.5227 70.6782 39.5227H78.7167C78.7852 39.5226 78.8531 39.5361 78.9165 39.5626C78.9799 39.5891 79.0374 39.628 79.086 39.6771C79.1345 39.7262 79.173 39.7845 79.1992 39.8486C79.2255 39.9128 79.239 39.9816 79.239 40.0511C79.239 40.1205 79.2255 40.1893 79.1992 40.2535C79.173 40.3176 79.1345 40.3759 79.086 40.425C79.0374 40.4741 78.9799 40.513 78.9165 40.5395C78.8531 40.566 78.7852 40.5795 78.7167 40.5794Z" fill="#E4E4E4"/>
<path d="M66.7968 58.4191H60.7243C60.4198 58.4188 60.1279 58.2961 59.9127 58.0779C59.6974 57.8597 59.5763 57.5639 59.5759 57.2554V51.9255C59.5763 51.6169 59.6974 51.3211 59.9127 51.103C60.1279 50.8848 60.4198 50.7621 60.7243 50.7617H66.7968C67.1012 50.7621 67.3931 50.8848 67.6084 51.103C67.8237 51.3211 67.9448 51.6169 67.9451 51.9255V57.2554C67.9448 57.5639 67.8237 57.8597 67.6084 58.0779C67.3931 58.2961 67.1012 58.4188 66.7968 58.4191Z" fill="#007DCB"/>
<path d="M91.8423 53.8804H70.6782C70.5399 53.8804 70.4073 53.8248 70.3096 53.7257C70.2118 53.6266 70.1569 53.4922 70.1569 53.3521C70.1569 53.2119 70.2118 53.0776 70.3096 52.9785C70.4073 52.8794 70.5399 52.8237 70.6782 52.8237H91.8423C91.9806 52.8237 92.1132 52.8794 92.211 52.9785C92.3087 53.0776 92.3637 53.2119 92.3637 53.3521C92.3637 53.4922 92.3087 53.6266 92.211 53.7257C92.1132 53.8248 91.9806 53.8804 91.8423 53.8804Z" fill="#E4E4E4"/>
<path d="M78.7167 56.357H70.6782C70.5399 56.357 70.4073 56.3013 70.3096 56.2022C70.2118 56.1032 70.1569 55.9688 70.1569 55.8286C70.1569 55.6885 70.2118 55.5541 70.3096 55.455C70.4073 55.356 70.5399 55.3003 70.6782 55.3003H78.7167C78.7852 55.3002 78.8531 55.3137 78.9165 55.3402C78.9799 55.3667 79.0374 55.4056 79.086 55.4547C79.1345 55.5038 79.173 55.562 79.1992 55.6262C79.2255 55.6904 79.239 55.7592 79.239 55.8286C79.239 55.8981 79.2255 55.9669 79.1992 56.0311C79.173 56.0952 79.1345 56.1535 79.086 56.2026C79.0374 56.2517 78.9799 56.2906 78.9165 56.3171C78.8531 56.3435 78.7852 56.3571 78.7167 56.357Z" fill="#E4E4E4"/>
<path d="M66.7968 74.1967H60.7243C60.4198 74.1964 60.1279 74.0736 59.9127 73.8555C59.6974 73.6373 59.5763 73.3415 59.5759 73.033V67.703C59.5763 67.3945 59.6974 67.0987 59.9127 66.8805C60.1279 66.6624 60.4198 66.5397 60.7243 66.5393H66.7968C67.1012 66.5397 67.3931 66.6624 67.6084 66.8805C67.8237 67.0987 67.9448 67.3945 67.9451 67.703V73.033C67.9448 73.3415 67.8237 73.6373 67.6084 73.8555C67.3931 74.0736 67.1012 74.1964 66.7968 74.1967Z" fill="#007DCB"/>
<path d="M91.8423 69.658H70.6782C70.5399 69.658 70.4073 69.6024 70.3096 69.5033C70.2118 69.4042 70.1569 69.2698 70.1569 69.1297C70.1569 68.9895 70.2118 68.8552 70.3096 68.7561C70.4073 68.657 70.5399 68.6013 70.6782 68.6013H91.8423C91.9806 68.6013 92.1132 68.657 92.211 68.7561C92.3087 68.8552 92.3637 68.9895 92.3637 69.1297C92.3637 69.2698 92.3087 69.4042 92.211 69.5033C92.1132 69.6024 91.9806 69.658 91.8423 69.658Z" fill="#E4E4E4"/>
<path d="M78.7167 72.1346H70.6782C70.5399 72.1346 70.4073 72.0789 70.3096 71.9798C70.2118 71.8807 70.1569 71.7463 70.1569 71.6062C70.1569 71.4661 70.2118 71.3317 70.3096 71.2326C70.4073 71.1335 70.5399 71.0779 70.6782 71.0779H78.7167C78.7852 71.0777 78.8531 71.0913 78.9165 71.1178C78.9799 71.1443 79.0374 71.1832 79.086 71.2323C79.1345 71.2813 79.173 71.3396 79.1992 71.4038C79.2255 71.468 79.239 71.5368 79.239 71.6062C79.239 71.6757 79.2255 71.7445 79.1992 71.8086C79.173 71.8728 79.1345 71.9311 79.086 71.9802C79.0374 72.0292 78.9799 72.0681 78.9165 72.0946C78.8531 72.1211 78.7852 72.1347 78.7167 72.1346Z" fill="#E4E4E4"/>
</g>
<defs>
<clipPath id="clip0">
<rect width="140.631" height="85" fill="white" transform="translate(0.155731)"/>
</clipPath>
</defs>
</svg>
